<?xml version="1.0" encoding="utf-8"?>
<!-- Generator: Adobe Illustrator 27.9.0, SVG Export Plug-In . SVG Version: 6.00 Build 0)  -->
<svg version="1.1" id="Layer_1" xmlns="http://www.w3.org/2000/svg" xmlns:xlink="http://www.w3.org/1999/xlink" x="0px" y="0px"
	 viewBox="0 0 383 72" style="enable-background:new 0 0 383 72;" xml:space="preserve">
<path d="M336.6,43.4c0.5-0.3,1-0.6,1.5-0.9C338.1,42.6,337.5,42.8,336.6,43.4z"/>
<path d="M52.9,42.4l17.2-17.2c-1.4-4.4-3.6-8.4-6.5-11.9L52.9,24V42.4z"/>
<path d="M46.2,1.8c-3.2-0.9-6.5-1.4-10-1.4c-3.4,0-6.8,0.5-9.9,1.4v19.9L46.2,1.8z"/>
<path d="M19.6,4.4C13,7.9,7.7,13.4,4.4,20.1l15.3,15.3v-31H19.6z"/>
<polygon points="46.2,31.9 46.2,11.1 35.8,21.5 "/>
<path d="M58.9,8.6C57,7,55,5.7,52.9,4.5v10.1L58.9,8.6z"/>
<path d="M1.8,27c-0.7,2.8-1.1,5.8-1.1,8.9c0,13.6,7.7,25.4,18.9,31.4V44.8L1.8,27z"/>
<path d="M31.1,26.2l-4.9,4.9v22.3l8.5-8.5l4.7,4.7L26.3,62.8v7.1c3.1,0.9,6.5,1.4,9.9,1.4c3.5,0,6.9-0.5,10-1.4V41.3L31.1,26.2z"/>
<path d="M52.9,51.8v15.4c11.2-6,18.8-17.8,18.8-31.3c0-0.9,0-1.8-0.1-2.7L52.9,51.8z"/>
<g>
	<path d="M86.1,164.9c-2.1-0.9-3.7-2.2-4.9-3.8c-1.2-1.7-1.8-3.6-1.8-5.8h6.7c0.1,1.7,0.8,3,2,4.1c1.2,1.1,2.8,1.6,4.9,1.6
		c2.2,0,3.9-0.5,5.1-1.6c1.2-1.1,1.8-2.4,1.8-4.1c0-1.3-0.4-2.3-1.1-3.1c-0.8-0.8-1.7-1.4-2.8-1.9c-1.1-0.4-2.7-0.9-4.7-1.4
		c-2.5-0.7-4.5-1.3-6.1-2c-1.6-0.7-2.9-1.7-4-3.2c-1.1-1.4-1.7-3.4-1.7-5.7c0-2.2,0.6-4.1,1.7-5.8c1.1-1.7,2.7-2.9,4.6-3.8
		c2-0.9,4.3-1.3,6.9-1.3c3.7,0,6.8,0.9,9.1,2.8c2.4,1.9,3.7,4.4,4,7.7h-7c-0.1-1.4-0.8-2.6-2-3.6s-2.8-1.5-4.8-1.5
		c-1.8,0-3.3,0.5-4.4,1.4c-1.1,0.9-1.7,2.2-1.7,4c0,1.2,0.4,2.1,1.1,2.9s1.6,1.4,2.7,1.8c1.1,0.4,2.6,0.9,4.5,1.4
		c2.5,0.7,4.6,1.4,6.2,2.1c1.6,0.7,3,1.8,4.1,3.2c1.1,1.5,1.7,3.4,1.7,5.8c0,2-0.5,3.8-1.6,5.5c-1.1,1.7-2.6,3.1-4.6,4.2
		c-2,1.1-4.4,1.6-7.1,1.6C90.6,166.3,88.2,165.8,86.1,164.9z"/>
	<path d="M121.6,163.8c-3-1.7-5.4-4-7.1-7c-1.8-3-2.6-6.4-2.6-10.1c0-3.8,0.9-7.1,2.6-10.1s4.1-5.3,7.1-7c3-1.7,6.3-2.5,9.9-2.5
		c3.6,0,6.9,0.8,9.9,2.5c3,1.7,5.4,4,7.1,7c1.7,3,2.6,6.4,2.6,10.1c0,3.8-0.9,7.1-2.6,10.1c-1.7,3-4.1,5.3-7.1,7s-6.3,2.5-9.9,2.5
		C127.8,166.3,124.6,165.4,121.6,163.8z M138.1,159.1c2-1.2,3.5-2.8,4.7-5c1.1-2.2,1.7-4.7,1.7-7.5s-0.6-5.3-1.7-7.5
		c-1.1-2.1-2.7-3.8-4.7-4.9c-2-1.1-4.3-1.7-6.8-1.7s-4.8,0.6-6.8,1.7c-2,1.1-3.5,2.8-4.7,4.9c-1.1,2.1-1.7,4.6-1.7,7.5
		s0.6,5.3,1.7,7.5c1.1,2.2,2.7,3.8,4.7,5s4.3,1.7,6.8,1.7C133.9,160.8,136.1,160.2,138.1,159.1z"/>
	<path d="M164.8,163.8c-3-1.7-5.4-4-7.1-7c-1.8-3-2.6-6.4-2.6-10.1c0-3.8,0.9-7.1,2.6-10.1c1.7-3,4.1-5.3,7.1-7
		c3-1.7,6.3-2.5,9.9-2.5c3.6,0,6.9,0.8,9.9,2.5c3,1.7,5.4,4,7.1,7c1.7,3,2.6,6.4,2.6,10.1c0,3.8-0.9,7.1-2.6,10.1
		c-1.7,3-4.1,5.3-7.1,7s-6.3,2.5-9.9,2.5S167.8,165.4,164.8,163.8z M181.4,159.1c2-1.2,3.5-2.8,4.7-5c1.1-2.2,1.7-4.7,1.7-7.5
		s-0.6-5.3-1.7-7.5c-1.1-2.1-2.7-3.8-4.7-4.9c-2-1.1-4.3-1.7-6.8-1.7s-4.8,0.6-6.8,1.7c-2,1.1-3.5,2.8-4.7,4.9
		c-1.1,2.1-1.7,4.6-1.7,7.5s0.6,5.3,1.7,7.5c1.1,2.2,2.7,3.8,4.7,5s4.3,1.7,6.8,1.7C177.2,160.8,179.4,160.2,181.4,159.1z"/>
	<path d="M225.9,144.5c-0.9,1.7-2.4,3.1-4.4,4.2c-2,1.1-4.6,1.6-7.8,1.6h-7v15.6h-6.3v-38.4h13.3c2.9,0,5.4,0.5,7.5,1.5
		c2,1,3.6,2.4,4.6,4.1s1.5,3.7,1.5,5.8C227.3,140.9,226.8,142.7,225.9,144.5z M219.1,143.5c1.2-1.1,1.8-2.6,1.8-4.6
		c0-4.2-2.4-6.3-7.1-6.3h-7v12.5h7C216.1,145.2,217.9,144.6,219.1,143.5z"/>
	<path d="M239.6,127.5V152c0,2.9,0.8,5.1,2.3,6.6s3.7,2.2,6.4,2.2c2.8,0,4.9-0.7,6.4-2.2c1.5-1.5,2.3-3.7,2.3-6.6v-24.5h6.3v24.4
		c0,3.1-0.7,5.8-2,8c-1.4,2.2-3.2,3.8-5.5,4.9c-2.3,1.1-4.8,1.6-7.6,1.6s-5.3-0.5-7.5-1.6c-2.3-1.1-4.1-2.7-5.4-4.9
		c-1.3-2.2-2-4.8-2-8v-24.4H239.6z"/>
	<path d="M277.8,160.8h13v5.1h-19.3v-38.4h6.3V160.8z"/>
	<path d="M302.4,160.8h13v5.1h-19.3v-38.4h6.3V160.8z"/>
	<path d="M326.9,127.5v38.4h-6.3v-38.4H326.9z"/>
	<path d="M375.6,127.5v38.4h-6.3v-26.3l-11.7,26.3h-4.4l-11.7-26.3v26.3h-6.3v-38.4h6.8l13.5,30.1l13.4-30.1H375.6z"/>
</g>
<g>
	<path d="M93.1,54.3c-2.2-0.9-3.9-2.2-5.2-3.9c-1.3-1.7-2-3.8-2-6.3h9.7c0.1,1.4,0.6,2.4,1.4,3.2c0.8,0.7,1.9,1.1,3.2,1.1
		c1.3,0,2.4-0.3,3.2-0.9c0.8-0.6,1.2-1.5,1.2-2.6c0-0.9-0.3-1.7-0.9-2.3c-0.6-0.6-1.4-1.1-2.3-1.5s-2.2-0.8-3.9-1.3
		C95,39,93,38.3,91.5,37.5c-1.5-0.7-2.8-1.8-3.9-3.3c-1.1-1.5-1.6-3.3-1.6-5.7c0-3.5,1.3-6.2,3.8-8.2c2.5-2,5.8-2.9,9.8-2.9
		c4.1,0,7.4,1,9.9,2.9c2.5,2,3.9,4.7,4,8.2h-9.8c-0.1-1.2-0.5-2.2-1.3-2.8c-0.8-0.7-1.9-1-3.1-1c-1.1,0-2,0.3-2.7,0.9
		c-0.7,0.6-1,1.4-1,2.5c0,1.2,0.6,2.1,1.7,2.8c1.1,0.7,2.9,1.4,5.3,2.2c2.4,0.8,4.4,1.6,5.9,2.3c1.5,0.7,2.8,1.8,3.9,3.2
		c1.1,1.4,1.6,3.2,1.6,5.5c0,2.1-0.5,4.1-1.6,5.8c-1.1,1.7-2.6,3.1-4.7,4.1c-2.1,1-4.5,1.5-7.3,1.5C97.7,55.6,95.2,55.2,93.1,54.3z"
		/>
	<path d="M127.6,53.2c-2.9-1.6-5.2-3.9-7-6.8c-1.7-2.9-2.6-6.2-2.6-9.9c0-3.6,0.9-6.9,2.6-9.8c1.7-2.9,4-5.2,7-6.8
		c2.9-1.6,6.1-2.4,9.6-2.4c3.5,0,6.7,0.8,9.6,2.4c2.9,1.6,5.2,3.9,6.9,6.8c1.7,2.9,2.5,6.2,2.5,9.8c0,3.6-0.9,6.9-2.6,9.9
		c-1.7,2.9-4,5.2-6.9,6.8c-2.9,1.6-6.1,2.4-9.6,2.4C133.7,55.6,130.5,54.8,127.6,53.2z M144.4,44.4c1.8-2,2.7-4.6,2.7-7.9
		c0-3.3-0.9-5.9-2.7-7.9c-1.8-2-4.2-2.9-7.1-2.9c-3,0-5.4,1-7.2,2.9c-1.8,1.9-2.7,4.6-2.7,7.9c0,3.3,0.9,5.9,2.7,7.9
		c1.8,2,4.2,2.9,7.2,2.9C140.2,47.3,142.6,46.3,144.4,44.4z"/>
	<path d="M169.3,53.2c-2.9-1.6-5.2-3.9-7-6.8c-1.7-2.9-2.6-6.2-2.6-9.9c0-3.6,0.9-6.9,2.6-9.8c1.7-2.9,4-5.2,7-6.8
		c2.9-1.6,6.1-2.4,9.6-2.4c3.5,0,6.7,0.8,9.6,2.4c2.9,1.6,5.2,3.9,6.9,6.8c1.7,2.9,2.5,6.2,2.5,9.8c0,3.6-0.8,6.9-2.6,9.9
		c-1.7,2.9-4,5.2-6.9,6.8c-2.9,1.6-6.1,2.4-9.6,2.4C175.5,55.6,172.3,54.8,169.3,53.2z M186.1,44.4c1.8-2,2.7-4.6,2.7-7.9
		c0-3.3-0.9-5.9-2.7-7.9c-1.8-2-4.2-2.9-7.1-2.9c-3,0-5.4,1-7.2,2.9c-1.8,1.9-2.7,4.6-2.7,7.9c0,3.3,0.9,5.9,2.7,7.9
		c1.8,2,4.2,2.9,7.2,2.9C182,47.3,184.3,46.3,186.1,44.4z"/>
	<path d="M230,35.9c-1,1.8-2.5,3.2-4.6,4.3c-2.1,1.1-4.6,1.6-7.7,1.6h-5.6v13.4h-9.1V18h14.7c3,0,5.5,0.5,7.5,1.5
		c2.1,1,3.6,2.4,4.6,4.3c1,1.8,1.5,3.9,1.5,6.2C231.5,32.1,231,34.1,230,35.9z M221,33.4c0.9-0.8,1.3-2,1.3-3.5s-0.4-2.6-1.3-3.5
		c-0.8-0.8-2.1-1.2-3.9-1.2h-4.9v9.4h4.9C218.9,34.6,220.2,34.2,221,33.4z"/>
	<path d="M245.2,18v22.3c0,2.2,0.5,4,1.6,5.2c1.1,1.2,2.7,1.8,4.8,1.8s3.8-0.6,4.9-1.8c1.1-1.2,1.7-2.9,1.7-5.2V18h9.1v22.3
		c0,3.3-0.7,6.1-2.1,8.4c-1.4,2.3-3.3,4-5.7,5.2c-2.4,1.2-5.1,1.8-8,1.8c-2.9,0-5.6-0.6-7.9-1.7c-2.3-1.2-4.2-2.9-5.5-5.2
		c-1.3-2.3-2-5.1-2-8.5V18H245.2z"/>
	<path d="M282.8,48.2h11.9v7h-21V18h9.1V48.2z"/>
	<path d="M308.2,48.2h11.9v7h-21V18h9.1V48.2z"/>
	<path d="M333.5,18v37.3h-9.1V18H333.5z"/>
	<path d="M382.3,18v37.3h-9.1V32.9l-8.3,22.4h-7.3l-8.4-22.4v22.4h-9.1V18h10.7l10.5,25.8L371.6,18H382.3z"/>
</g>
</svg>
