<?xml version="1.0" encoding="UTF-8"?>
<svg id="_레이어_1" data-name="레이어_1" xmlns="http://www.w3.org/2000/svg" version="1.1" viewBox="0 0 400 300">
  <!-- Generator: Adobe Illustrator 29.8.3, SVG Export Plug-In . SVG Version: 2.1.1 Build 3)  -->
  <defs>
    <style>
      .st0 {
        fill: #0039cc;
        opacity: .24;
      }

      .st0, .st1, .st2 {
        display: none;
      }

      .st1 {
        fill: #c2072e;
      }

      .st3 {
        fill: #fff;
      }

      .st2 {
        fill: #001a70;
      }
    </style>
  </defs>
  <circle class="st0" cx="200.5" cy="150" r="114.17"/>
  <path class="st2" d="M216.06,83.24c-2.73-6.1-11.93-1.91-11.93-1.91,7.74,4.91,11.93,1.91,11.93,1.91M200.87,82.33c.96,0,1.73-.78,1.73-1.74s-.77-1.73-1.73-1.73-1.74.77-1.74,1.73.78,1.74,1.74,1.74M221.91,83.84s-3.33-.06-6.37,1.76l9.79.14.34-.26s-4.87-13.2-17.84-14.83c0,0,3.13,9.77,14.08,13.18M228.78,86.4c0-.72-.57-1.3-1.29-1.3s-1.3.58-1.3,1.3.58,1.3,1.3,1.3,1.29-.58,1.29-1.3M176.52,85.74l9.79-.14c-3.04-1.83-6.37-1.76-6.37-1.76,10.96-3.41,14.08-13.18,14.08-13.18-12.97,1.62-17.84,14.83-17.84,14.83l.34.26M173.37,87.11c0,.72.58,1.3,1.3,1.3s1.3-.58,1.3-1.3-.58-1.3-1.3-1.3-1.3.58-1.3,1.3M174.18,97.55c-7.05-5.02-17.34-1.14-17.34-1.14,9.14-6.95,9.07-18.07,9.07-18.07-11.63,5.97-11.7,20.03-11.7,20.03,14.23,4.23,19.97-.83,19.97-.83M178.1,94.79l.1-4.76c-5.3-1.56-10.65-.54-10.65-.54,10.2-5.26,12.07-16.22,12.07-16.22-12.49,3.85-15,17.7-15,17.7,5.77,2.87,10.25,3.75,13.48,3.82M234.47,88.71s-4.25-1.28-9.61.54v4.9c3.26-.06,6.57-.86,12.57-4.02,0,0-2.84-13.79-15.41-17.33,0,0,2.12,10.91,12.45,15.92M185.77,83.81s4.3,2.84,11.85-2.36c0,0-9.35-3.84-11.85,2.36M251.2,149.85h-5.46v6.92h5.46v-6.92ZM236.45,102.43l-2.82,3.37,15.29,15.3,3.1-3.1-15.56-15.57ZM266.21,101.99l-14.01-14.01-12.56,13.64,13.47,13.29,13.1-12.92h0ZM151.97,100.42c0,.72.58,1.3,1.3,1.3s1.3-.58,1.3-1.3-.58-1.3-1.3-1.3-1.3.58-1.3,1.3M255.72,115.18c2.41.69,5.37,1.2,8.99,1.35,0,0,1.65-4.9.93-10.84l-4.73,4.53c.51,1.2,1.15,2.41,1.96,3.6,0,0-1.31-1.07-3.4-2.23l-3.76,3.59h0ZM251.48,183.71h-5.46v6.92h5.46v-6.92ZM243.51,94.02l3.18-3.22c-1.35-4.54-4.08-10.01-10.83-13.27,0,0-.28,9.71,7.65,16.49M271.96,142.46c0,.72.58,1.3,1.3,1.3s1.3-.58,1.3-1.3-.59-1.3-1.3-1.3-1.3.58-1.3,1.3M254.92,78.17c4.09,2.03,7.39-.1,7.39-.1,4.55-2.23,7.84.86,7.84.86,3.18,2.48,2.66,5.75,2.66,5.75,0,2.51-.73,2.68-.73,2.68-1.52,1.04-1.14-.72-1.14-.72l.35-1.23c.6-5.65-4.47-6.47-4.47-6.47-5.38-.94-6.73,4.03-6.73,4.03-.34,1.37-.37,2.59-.22,3.66l-6.73-6.73.31,5.68,15.02,15.01h5.37l-5.45-5.45c2.88.9,5.4,1,5.4,1,7.67-.47,8.48-7.8,8.48-7.8,2.02-7.66-5.24-13.85-5.24-13.85-4.85-4.16-12.17-4.5-12.17-4.5-10.42-1.21-14.12-7.87-14.12-7.87-1.22,3.03-.9,7.52-.9,7.52.7,6.91,5.08,8.52,5.08,8.52M273.81,140.33s8.74-11.04,3.37-22.96c0,0-6.99,8.65-4.2,19.8,0,0-5.6-9.47-14.25-9.96,0,0,1.33,7.53,15.08,13.12M264.94,120.09c.72,0,1.3-.58,1.3-1.3s-.58-1.3-1.3-1.3-1.3.59-1.3,1.3.58,1.3,1.3,1.3M238.81,99.08l3.93-4.07c-3.35-.78-9.63-1.89-14.71,1.89,0,0,2.61,2.96,10.78,2.17M270.29,128.04s6.69-12.38-.66-23.2c0,0-5.38,9.72-.7,20.21,0,0-7.16-8.34-15.75-7.33,0,0,2.61,7.19,17.12,10.31M224.44,222.63c0,.72.58,1.3,1.3,1.3s1.3-.58,1.3-1.3-.58-1.3-1.3-1.3-1.3.58-1.3,1.3M230.95,221.38s7.34-6.3,7.41-14.18l-2.62.1c-2.37,2.08-5.85,6.5-7.77,15.45,0,0,12.39,6.69,23.19-.66,0,0-9.72-5.38-20.2-.71M218.84,225.42s9.46-5.61,9.95-14.25c0,0-7.53,1.33-13.12,15.08,0,0,11.03,8.73,22.95,3.38,0,0-8.64-7-19.78-4.21M206.15,228.12c9.83-4.55,12.01-12.19,12.01-12.19-7.65.54-14.2,12.01-14.2,12.01,8.56,8.73,19.66,7.65,19.66,7.65-5.1-6.74-17.47-7.47-17.47-7.47M200.68,224.12v3.23c-1.49-2.35-7.32-10.88-13.91-11.3,0,0,2.24,7.62,12.1,12.1,0,0-12.37.82-17.42,7.59,0,0,10.79.97,19.23-7.42v5.26h3.28v-9.47h-3.28ZM246.01,194.27v6.92l30.95,25.66h6.18l-31.49-32.58h-5.64ZM242.17,215.3s2.81-3.37,4.19-8.11l-5.27-.08c-.84,2.59-1.47,5.88-1.62,10.05,0,0,11.39,3.78,20.52-2.82l-3.52-2.83c-3.89-.22-9.24.36-14.3,3.79M180.77,223.13c0-.72-.58-1.3-1.3-1.3s-1.3.58-1.3,1.3.58,1.3,1.3,1.3,1.3-.58,1.3-1.3M267.29,186.92s1.78-10.85-4.52-16.78c0,0-3.82,6.62,3.11,19.74,0,0,13.79-2.83,17.34-15.41,0,0-10.92,2.13-15.93,12.45M254.53,209.88l-4.56-3.72c.1,1.16.25,2.39.46,3.7,0,0,1.65.19,4.11.02M247.64,211.56c.72,0,1.3-.58,1.3-1.3s-.58-1.3-1.3-1.3-1.3.58-1.3,1.3.58,1.3,1.3,1.3M139.08,192.63c0,.72.58,1.3,1.3,1.3s1.3-.58,1.3-1.3-.58-1.3-1.3-1.3-1.3.58-1.3,1.3M129.63,167.5c10.76-10.23,9.26-17.71,9.26-17.71-7.87,3.6-9.65,14.46-9.65,14.46-1.45-11.39-11.11-16.9-11.11-16.9-.66,13.06,11.5,20.15,11.5,20.15M129.66,169.3c0,.72.58,1.3,1.3,1.3s1.29-.58,1.29-1.3-.57-1.3-1.29-1.3-1.3.58-1.3,1.3M148.15,88.22l-10.04-10.14c-6.21-6.21-13.59-2.11-13.59-2.11l19.77,19.68c1.32-5.05,3.85-7.43,3.85-7.43M140.44,94.43l-17.07-17.07s-7.13,5.12-1.59,17.07h18.66ZM133.03,179.82c8.83-11.93,6.04-19.05,6.04-19.05-7.12,4.92-6.99,15.91-6.99,15.91-3.41-10.97-13.88-14.71-13.88-14.71,1.62,12.98,14.83,17.85,14.83,17.85M140.95,213.64s2.01-1.2,4.95-1.64l-3.25-.77-.31.41.31-.41-14.42,15.17s-1.64,2.37-.09,3.92c0,0,1.45,1.18,3.46-.18l14.04-12.28c-1.42-.73-4.52-3.32-4.69-4.22M168.28,207.48l-1.84-.02c-.1,8.16,7.75,14.59,7.75,14.59-10.59-4.43-20.19,1.18-20.19,1.18,10.98,7.09,23.21.11,23.21.11-2.38-9.92-6.56-14.16-8.92-15.86M138.53,191.37c6.62-13.27,2.64-19.8,2.64-19.8-6.17,6.07-4.13,16.88-4.13,16.88-5.26-10.21-16.22-12.08-16.22-12.08,3.85,12.49,17.7,14.99,17.7,14.99M176.1,211.79c.7,8.64,10.28,14.01,10.28,14.01-11.19-2.52-19.67,4.67-19.67,4.67,12.05,5.08,22.87-3.91,22.87-3.91-5.92-13.62-13.48-14.77-13.48-14.77M145.23,107.49c14.75,1.69,19.51-4.29,19.51-4.29-7.8-3.71-17.27,1.89-17.27,1.89,7.8-8.44,5.81-19.37,5.81-19.37-10.43,7.88-8.04,21.76-8.04,21.76M145.93,201.79c4.22-14.23-.84-19.96-.84-19.96-5.01,7.05-1.13,17.33-1.13,17.33-6.95-9.14-18.07-9.07-18.07-9.07,5.96,11.63,20.03,11.7,20.03,11.7M253.73,190.15s-.92.97-1.22,2.44l2.74,2.84c-.15-1.77-.61-3.58-1.52-5.28M162.02,133.2l5.06,4.45h11.4c-.55-.9-.37-4.36-.37-4.36l-16.09-.09h0ZM190.3,99.82v-6.37h19.84v9.1h6.55v6.55h-6.36v2.92h6.36v7.09h-6.36v21.3h-5.46l-7.56-7.56-6.91,6.92-5.01-5,11.46-11.47,5.92,5.92v-29.4h-12.47,0ZM180.1,130.34c0,15.11,9.47,22.08,21.15,22.08s21.18-6.95,21.18-22.08v-43.07h-42.32s0,27.98,0,43.07M164.5,105.49s-1.27,1.86-6.14,2.91l6.14,5.68s0-8.6,0-8.6ZM218.62,168.36c1.38,0,1.38-1.04,1.4-2.1v-9.84h2.82v10.41c0,1.52-.17,4.09-4.24,4.09-2.63,0-4.2-1.22-4.2-3.89v-10.6h2.82v9.24c0,1.08-.14,2.7,1.4,2.7M225.87,173.81v2.65h-2.86v3.1h2.52v2.66h-2.52v3.22h2.9v2.65h-5.72v-14.28h5.68ZM225.11,156.42h3.18l.81,1.99c.24.7.53,1.44.68,2.17h.04c.15-.74.39-1.45.65-2.17l.85-1.99h3.05l-3.05,6.91,3.28,7.36h-3.28l-.9-2.27c-.26-.73-.44-1.42-.64-2.14h-.03c-.21.72-.38,1.41-.62,2.14l-.84,2.27h-3.18l3.02-7.36-3.02-6.91h0ZM233.7,188.08l-.52-2.41h-2.86l-.51,2.41h-2.8l3.31-14.28h2.97l3.43,14.28h-3.02,0ZM215.64,188.08l-.68-10.29h-.05l-.45,3.52-1.21,6.77h-2.18l-1.38-6.84-.48-3.19v-.26h-.04l-.42,10.29h-3.02l1.25-14.28h3.71l1.39,8.43h.03l1.14-8.43h3.79l1.49,14.28h-2.89ZM206.49,156.42h2.82v11.63h2.95v2.64h-5.77v-14.27h0ZM202.87,154.22v48.42s2.73-2.72,6.56-2.72h30.03v-60.06h-16.2s-4.6,14.16-20.39,14.38M190.73,160.44c0-1.02-.49-1.85-1.91-1.78h-.38v3.8l.5.02c1.28,0,1.79-.87,1.79-2.05M231.71,177.48h-.04l-.3,2.16-.61,3.8h1.98l-.73-3.8-.31-2.16h0ZM155.72,113.88h0c-.52.41-4.12,3.7-9.61,4.37l1.87,1.76,19.66-.09-6.1-6.1h0l-3.08-3.1s-2.19,2.79-2.73,3.15M265.35,191.14c0-.72-.57-1.3-1.29-1.3s-1.3.58-1.3,1.3.58,1.3,1.3,1.3,1.29-.58,1.29-1.3M272.94,168.95c.72,0,1.3-.59,1.3-1.31s-.58-1.29-1.3-1.29-1.3.58-1.3,1.29.58,1.31,1.3,1.31M264.61,159.29s-2.61,7.19,6.49,18.92c0,0,13.08-5.18,14.4-18.2,0,0-10.38,3.99-13.51,15.03,0,0-.14-11-7.38-15.74M274.53,162.54s-2.04-10.81-9.99-14.22c0,0-1.33,7.53,9.67,17.49,0,0,11.99-7.38,11.02-20.41,0,0-9.52,5.73-10.71,17.15M259.09,180.48s-4.92,5.86-.37,19.99c0,0,14.07-.4,19.76-12.17,0,0-11.11.2-17.85,9.5,0,0,3.63-10.38-1.53-17.32M274.87,149.78s-3.88-10.29-12.3-12.28c0,0,0,7.65,12.56,15.55,0,0,10.52-9.35,7.31-22.03,0,0-8.39,7.3-7.57,18.75M265.84,206.39c2.16-1.34,4.21-3.16,5.92-5.66,0,0-4.69-.61-10.19,1.24l4.27,4.42h0ZM183.92,179.55l-.32-2.16h-.04l-.31,2.16-.61,3.8h1.99l-.72-3.8ZM142.12,95.2c-8.89,9.57-4.15,22.82-4.15,22.82,14.82-.9,18.48-7.61,18.48-7.61-8.35-2.3-16.68,4.86-16.68,4.86,6.21-9.66,2.35-20.07,2.35-20.07M197.69,209.84h8.54s.57-3.71,2.97-3.71h35.46v-62.39l-3.52-3.71v61.82h-31.75s-4.27.37-7.62,4.45c0,0-2.6-3.89-8.16-4.27h-31.01v-61.45l-3.8,3.8v61.73h34.62s4.27.18,4.27,3.71M131.33,144.17c0-.71-.58-1.3-1.3-1.3s-1.3.59-1.3,1.3.58,1.3,1.3,1.3,1.3-.58,1.3-1.3M130.19,138.83c2.52-11.2-4.66-19.67-4.66-19.67-5.09,12.04,3.91,22.86,3.91,22.86,13.61-5.92,14.76-13.47,14.76-13.47-8.63.7-14.01,10.28-14.01,10.28M120.6,132.93c-2.91,12.74,7.83,21.84,7.83,21.84,12.37-8.19,12.19-15.83,12.19-15.83-8.37,2.19-12.01,12.56-12.01,12.56.55-11.47-8-18.57-8-18.57M134.71,107.51s-.74-4.62,4.08-11.54h-16.29s.7,1.89,12.21,11.54M177.75,131.61v-1.77l-8.47-8.47h-19.84l11.2,10.24h17.1ZM157.31,203.23c.05.59.16-.13.16-.13v-8.44l-1.4,1.55c.79,2.13,1.06,5.18,1.23,7.02M136.46,120.27c0,.71.58,1.29,1.3,1.29s1.29-.58,1.29-1.29-.57-1.3-1.29-1.3-1.3.58-1.3,1.3M157.23,212.68c.72,0,1.3-.58,1.3-1.3s-.58-1.3-1.3-1.3-1.29.59-1.29,1.3.58,1.3,1.29,1.3M166.28,116l11.47,11.29v-8.73l-11.47-11.47v8.92h0ZM157.36,183.08h-5.46v6.91h5.46v-6.91ZM233.36,108.82l-8.92,9.7.09,15.51s-.27,2.56-.82,3.82h5.73l16.38-16.38-12.46-12.64h0ZM185.04,156.33v2.64h-2.86v3.1h2.52v2.65h-2.52v3.23h2.89v2.64h-5.71v-14.25l-3.96,14.25h-2.31l-4.13-14.27h3.02l1.71,6.85c.25.81.34,1.63.51,2.44h.04c.15-.83.21-1.64.44-2.48l1.72-6.81h8.63ZM188.59,187.99h-3.01l-.53-2.4h-2.86l-.52,2.4h-2.8l3.32-14.28h2.97l3.43,14.28h0ZM185.62,156.33h2.84c1.8,0,5.01.18,5.01,4.09,0,1.57-.62,2.91-2.01,3.68l2.48,6.5h-2.97l-2.48-6.59h-.04v6.59h-2.82v-14.27h0ZM194.5,156.33h2.82v14.28h-2.82v-14.28ZM192.4,188.21c-.8,0-1.78-.24-2.43-.72v-2.69c.67.46,1.31.77,2.14.77.9,0,1.63-.61,1.63-1.56,0-1.09-.88-1.52-1.67-2.09-1.63-1.09-2.63-2.15-2.63-4.23,0-2.26,1.31-4.21,3.72-4.21.91,0,1.73.25,2.5.7v2.75c-.57-.49-1.27-.91-2.04-.91-.88,0-1.43.53-1.43,1.4,0,2.35,4.3,2.49,4.3,6.34,0,2.53-1.45,4.44-4.11,4.44M178.36,176.36h-2.23v11.63h-2.82v-11.63h-2.21v-2.65h7.26v2.65h0ZM164.28,139.85v60.06h29.76c3.36.09,6.83,2.72,6.83,2.72v-48.05c-18.03-.39-21.66-14.74-21.66-14.74h-14.93ZM165.58,218.02c-.28-4.58-1.11-7.92-2.14-10.58h-5.27c1.43,5.02,4.67,8.79,4.67,8.79-9.66-6.21-20.08-2.35-20.08-2.35,9.58,8.89,22.83,4.15,22.83,4.15M147.68,121.8l-2.65-2.48c-6.41,1.63-11.07,7.31-11.07,7.31,3.01-7.2,1.38-13.94.03-17.52l-1.92-1.58c-5.56,10.54.6,22.12.6,22.12,8.56-2.05,12.89-5.43,15.02-7.85M133.29,202.73c7.88,10.42,21.75,8.04,21.75,8.04,1.69-14.75-4.28-19.53-4.28-19.53-3.71,7.83,1.89,17.28,1.89,17.28-8.43-7.78-19.37-5.79-19.37-5.79M157.18,150.4h-5.46v6.92h5.46v-6.92h0Z"/>
  <g>
    <path class="st3" d="M127.83,197.32c1.41,0,2.56-1.14,2.57-2.56.01-1.41-1.13-2.57-2.54-2.58,0,0-.01,0-.02,0-1.41,0-2.56,1.15-2.57,2.56,0,1.41,1.14,2.56,2.55,2.57M122.19,194.74c.01-3.12,2.55-5.65,5.68-5.64,3.12.01,5.65,2.55,5.64,5.68-.01,3.12-2.55,5.65-5.68,5.64h0c-3.12-.01-5.64-2.55-5.63-5.67h0M155.89,195c1.41,0,2.56-1.13,2.57-2.55h0c0-1.42-1.14-2.57-2.55-2.58-1.41,0-2.57,1.15-2.57,2.56,0,1.41,1.14,2.56,2.56,2.56M150.24,192.42c.01-3.12,2.55-5.64,5.67-5.63,3.12,0,5.65,2.54,5.64,5.67,0,0,0,0,0,0,0,3.12-2.54,5.64-5.66,5.63,0,0,0,0-.01,0-3.12,0-5.64-2.54-5.64-5.66,0,0,0,0,0-.01M167.72,169.05c1.41,0,2.56-1.14,2.57-2.56,0-1.41-1.15-2.56-2.56-2.57-1.41,0-2.56,1.14-2.56,2.55,0,1.41,1.12,2.56,2.53,2.57,0,0,.01,0,.02,0M162.07,166.47c.01-3.12,2.55-5.65,5.68-5.64h0c3.12.01,5.64,2.55,5.63,5.67h0c0,3.12-2.55,5.65-5.67,5.64-3.12,0-5.64-2.54-5.64-5.66,0,0,0,0,0,0M196.89,166.88c1.41.01,2.56-1.12,2.57-2.53,0,0,0-.02,0-.02,0-1.41-1.14-2.57-2.55-2.57s-2.57,1.14-2.57,2.55,1.14,2.57,2.55,2.57h0M191.24,164.31c0-3.12,2.54-5.65,5.67-5.65h0c3.13.07,5.6,2.67,5.53,5.79-.07,3.04-2.53,5.48-5.57,5.53-3.11-.01-5.65-2.55-5.63-5.67M208.52,140.92c1.41,0,2.56-1.14,2.57-2.56,0-1.41-1.14-2.56-2.55-2.57s-2.56,1.14-2.57,2.55c0,1.41,1.13,2.56,2.54,2.57,0,0,0,0,.01,0M202.88,138.34c-.03-3.12,2.47-5.68,5.59-5.71,3.12-.03,5.68,2.47,5.71,5.59,0,.05,0,.11,0,.16,0,3.12-2.54,5.65-5.66,5.64,0,0,0,0-.01,0-3.12,0-5.64-2.53-5.63-5.65,0,0,0-.02,0-.03M237.79,138.38c1.41,0,2.56-1.14,2.56-2.56h0c0-1.42-1.14-2.57-2.56-2.57-1.42,0-2.57,1.14-2.58,2.55,0,1.42,1.15,2.57,2.57,2.57M232.14,135.79c0-3.12,2.55-5.64,5.68-5.64,3.12.02,5.64,2.55,5.63,5.67-.01,3.13-2.55,5.65-5.68,5.64-3.12-.01-5.65-2.55-5.63-5.68h0M249.34,113.54c1.41,0,2.56-1.14,2.57-2.55,0-1.41-1.14-2.56-2.55-2.57h0c-1.41,0-2.57,1.14-2.57,2.56s1.14,2.56,2.56,2.56M243.69,110.97c.02-3.12,2.55-5.64,5.67-5.64,3.12.01,5.65,2.55,5.64,5.67,0,3.12-2.55,5.64-5.67,5.63-3.12-.01-5.64-2.55-5.64-5.67"/>
    <path class="st3" d="M198.16,135.81c-7.39,1.65-13.47,9.86-13.47,9.86-6.62,9.6-5.05,16.82-5.05,16.82l18.46-26.56.05-.12ZM200.24,137.48l-18.56,26.49s7.31-1.01,14.05-10.55c0,0,5.61-8.53,4.62-16.03l-.1.08ZM176.45,168.81s-4.46-29.54,25.92-37.58c0,0,7.51,28.48-25.92,37.58"/>
    <path class="st3" d="M236.71,144.05c-6.59-3.71-16.6-1.66-16.6-1.66-11.35,2.7-15,9.12-15,9.12l31.49-7.39.11-.06ZM237.14,146.69l-31.52,7.28s6.12,4.14,17.5,1.55c0,0,9.88-2.6,14.14-8.83h-.12ZM198.5,154.08s16.45-24.95,44.4-10.62c0,0-13.45,26.2-44.4,10.62M157.58,163.94c-7.38,1.65-13.45,9.86-13.45,9.86-6.65,9.6-5.06,16.82-5.06,16.82l18.46-26.56.05-.12ZM159.67,165.61l-18.57,26.49s7.32-1,14.05-10.54c0,0,5.61-8.54,4.62-16.02l-.09.08ZM135.87,196.94s-4.45-29.55,25.92-37.58c0,0,7.52,28.48-25.92,37.58"/>
    <path class="st3" d="M195.64,172.43c-6.59-3.71-16.6-1.67-16.6-1.67-11.35,2.71-15,9.12-15,9.12l31.48-7.4.12-.06ZM196.07,175.07l-31.51,7.27s6.1,4.15,17.48,1.56c0,0,9.89-2.6,14.16-8.83h-.13ZM157.43,182.44s16.44-24.94,44.39-10.61c0,0-13.44,26.2-44.39,10.61M239.23,107.43c-7.37,1.65-13.45,9.85-13.45,9.85-6.64,9.61-5.06,16.82-5.06,16.82l18.48-26.56.03-.12ZM241.32,109.1l-18.57,26.49s7.32-1,14.04-10.54c0,0,5.62-8.54,4.62-16.03l-.09.08ZM217.52,140.44s-4.45-29.55,25.92-37.59c0,0,7.52,28.48-25.92,37.59"/>
    <path class="st3" d="M277.04,116.94c-6.58-3.71-16.59-1.67-16.59-1.67-11.36,2.71-15.01,9.12-15.01,9.12l31.5-7.39.11-.06ZM277.47,119.57l-31.51,7.28s6.11,4.14,17.49,1.55c0,0,9.87-2.59,14.15-8.83h-.13ZM238.83,126.95s16.45-24.94,44.39-10.62c0,0-13.44,26.21-44.39,10.62M154.9,200.75c-6.62-3.64-16.61-1.51-16.61-1.51-11.33,2.81-14.93,9.26-14.93,9.26l31.43-7.69.11-.06ZM155.34,203.39l-31.44,7.57s6.15,4.09,17.51,1.39c0,0,9.86-2.69,14.07-8.97h-.14ZM116.78,211.13s16.21-25.1,44.3-11.03c0,0-13.21,26.33-44.3,11.03M125.94,186.1s4.49.02,7.47,2.53c0,0-2.07-11.73,12.46-25.18-.89-3.34-1.44-6.76-1.66-10.21h-26.9c.47,11.45,3.42,22.66,8.63,32.86"/>
    <path class="st3" d="M162.01,197.84c1.62.63,2.11,1.76,2.11,1.76-4.27,9.74-14.25,14.54-14.25,14.54,13.27,9.7,29.23,15.02,45.67,15.22l.07-26.87c-11.48-.23-22.57-4.23-31.56-11.37,1.74,3.37-2.04,6.73-2.04,6.73M195.61,97.54v-26.89h-78.83v26.88h20.61c-11.66,11.58-19.17,29.52-20.07,48.48h26.83c2.19-27.03,24.9-48.38,51.45-48.47M203.03,70.65h80.19v26.88h-18.17v11.74c-1.7-.44-6.79.99-6.79.99-3.73-11.64-11.99-6.78-11.99-6.78-.12-.88-.87-3.13-.87-3.13-1.99-.5-7.25,1.48-7.25,1.48v-4.12s0-.17,0-.17h-35.12v-26.88M265.05,173.46v-39.44c-6.8,2.84-19.24-.18-19.24-.18,1.48,6.38-1.89,8.24-1.89,8.24.86.5,1.98,1.75,1.98,1.75-1.76,5.88-7.9,10.11-7.9,10.11l-.04,12.74c-2.07,34.14-30.8,35.69-34.87,35.73v26.92s28.44-.63,48.25-22.36c0,0,11.26,13.63,31.88,19.39v-30.68s-17.89-5.99-18.17-22.23"/>
  </g>
  <path class="st1" d="M200,38.51c-61.49,0-111.5,50.02-111.5,111.5s50.02,111.49,111.5,111.49,111.5-50.04,111.5-111.49c0-61.47-50-111.5-111.5-111.5ZM200,43.18c58.91,0,106.81,47.91,106.81,106.82s-47.9,106.8-106.81,106.8-106.83-47.92-106.83-106.8,47.93-106.82,106.83-106.82h0ZM189.75,49.96v1c.83.07,1.35.11,1.51.15l.38.21.18.38c.04.17.07.56.07,1.15l.06,3.44v3.82c0,1.06-.03,1.92-.06,2.58-.02.73-.07,1.45-.16,2.18l-.15.44-.23.15c-.13.04-.66.07-1.6.14v1.02c1.33-.06,2.36-.09,3.14-.09.19,0,1.05,0,2.57.03v-.97h-.24s-1.12-.09-1.12-.09l-.42-.14-.15-.21c-.06-.2-.12-.74-.15-1.67-.04-1.32-.06-2.61-.06-3.86v-5.9c4.71,5.72,8.33,10.02,10.9,12.9.67.07,1.36.18,2.03.29l.15-.11c-.11-1.12-.15-4.32-.15-9.6,0-.68,0-1.72.03-3.12.05-1.43.13-2.35.24-2.73l.14-.17c.18-.1.76-.19,1.73-.22v-1c-1.25.04-2.26.06-3.04.06s-1.69-.02-2.67-.06v1c1.05.02,1.69.11,1.86.24l.23.57c.07.76.12,3.26.12,7.53v2.75c-1.1-1.11-2.47-2.7-4.15-4.73-2.33-2.76-4.29-5.19-5.93-7.35l-1.1.04-1.73.02c-.47,0-1.21-.02-2.22-.06h0ZM185.49,50.62l-2.59.67-.31.1c-.26.05-1.12.22-2.55.49l.22.98c.88-.2,1.46-.24,1.76-.15l.33.21c.14.19.34.77.58,1.74.11.45.41,1.72.89,3.76l.54,2.4c.41,1.65.54,2.82.38,3.49-.13.66-.47,1.23-1.04,1.77-.54.5-1.38.92-2.46,1.16-.96.22-1.74.26-2.43.11-.67-.11-1.21-.37-1.6-.77-.42-.36-.73-.92-.97-1.64-.13-.32-.34-1.2-.66-2.62l-.34-1.36-.64-2.72c-.38-1.66-.58-2.72-.58-3.23l.13-.48c.2-.2.72-.38,1.56-.59l-.24-.98-.43.12-1.56.4-1.59.42-3.82.8.24.97,1.56-.21.34.25.31.7c.27.89.51,1.84.77,2.96l.69,2.97.53,2.24c.29,1.25.47,1.98.59,2.27l.78,1.32c.37.42.83.76,1.4,1.04.56.31,1.26.46,2.06.53,1.15.07,2.31-.03,3.43-.31,1.01-.24,1.88-.55,2.61-.95.72-.41,1.32-.88,1.78-1.42.45-.57.77-1.16.95-1.75.2-.62.25-1.3.18-2.08-.07-.77-.18-1.52-.36-2.22l-.64-2.77c-.19-.78-.41-1.91-.69-3.32-.27-1.42-.41-2.23-.38-2.43l.14-.41c.16-.17.61-.33,1.33-.48l-.22-.97ZM212.32,50.96l-.14,1.01c.82.16,1.31.26,1.44.31l.26.17.06.25c0,.24-.04.86-.13,1.82-.05.46-.19,1.43-.42,2.94l-.71,4.76c-.12.84-.28,1.68-.48,2.51-.15.64-.22,1.31-.26,1.39l-.11.17-.37.08c-.12,0-.6-.03-1.36-.13l-.17,1c.96.1,2.06.25,3.28.43,1.42.22,2.74.42,3.97.67l.16-1c-.75-.13-1.21-.23-1.36-.31l-.31-.15-.12-.26c-.03-.26,0-1.11.12-1.89l.28-2.1.67-4.6c.04-.12.19-1.16.51-3.02.09-.56.17-.92.21-1.12l.22-.71.14-.16.33-.1c.16-.02.61.01,1.37.12l.18-1.01c-1.26-.15-2.57-.33-3.96-.52-1.23-.2-2.33-.37-3.3-.57h0ZM223.34,52.85l-.31.94c.69.25,1.11.48,1.29.67.12.12.24.53.34,1.17.09.66.27,2.68.53,5.99l.33,4.3c.12,1.57.25,3.25.35,4.99l1.69.57c.86-1.12,2.42-3.01,4.68-5.6l2.68-3.06,1.39-1.58c1.13-1.32,1.83-1.99,2.09-2.1.15-.04.58,0,1.3.22l.33-.98-2.41-.72-2.77-.99-.32.95,1.18.48.38.17.11.2-.04.29-.11.28c-.17.26-.58.8-1.19,1.57-.9,1.1-1.36,1.71-1.47,1.84l-4.48,5.25-.53-7.73v-.23c0-.07-.03-.49-.08-1.25-.11-1.34-.12-2.14-.04-2.35l.18-.24.39-.04c.32.03.78.14,1.37.33l.33-.96-3.99-1.23c-.38-.11-1.45-.5-3.21-1.13ZM243.52,60.01l-.51.88c.77.51,1.22.83,1.34,1.01l.07.26c-.01.18-.25.67-.66,1.45-.64,1.14-1.01,1.82-1.12,1.98l-2.62,4.53c-.31.52-.82,1.34-1.54,2.47-.38.59-.69,1.05-.89,1.3l-1.32.03-.32.54c2.11,1.16,3.23,1.8,3.38,1.9.61.33,1.72.97,3.27,1.92l1.62.99c.79.46,1.41.77,1.88.96l.18-.04c.52-.88,1.22-1.91,2.14-3.15l-.82-.49c-.67.83-1.14,1.37-1.46,1.62l-.24.09c-.18.02-.6-.12-1.23-.44-.7-.34-1.39-.7-2.07-1.09-.74-.43-1.36-.81-1.87-1.17l.68-1.25,2.46-4.28c.44.22,1,.52,1.66.88.7.42,1.29.81,1.71,1.14l.3.5c0,.25-.23.79-.71,1.54l.87.5,1.25-2.25,1.33-2.19-.83-.46c-.34.57-.66,1-.9,1.19l-.24.12-.69-.29c-.97-.53-1.52-.85-1.69-.94l-1.4-.84,1.21-2.08c.66-1.17,1.3-2.13,1.82-2.8.63.32,1.27.61,1.88.99.62.37,1.26.77,1.87,1.25l.73.62v.27c-.08.21-.33.71-.77,1.51l.78.45c.56-.83.88-1.3.94-1.37l1.04-1.35v-.18l-.31-.25c-.7-.46-1.17-.75-1.43-.88l-2.06-1.15c-1.03-.57-2.06-1.15-3.08-1.75l-1.33-.76-2.29-1.44ZM150.94,63.7c-.7.08-1.62.36-2.71.75-1.17.44-2.28,1-3.33,1.67-.86.51-1.65,1.12-2.37,1.8-.69.64-1.24,1.34-1.72,2.16-.47.79-.79,1.66-.98,2.58-.19.94-.2,1.91,0,2.85.18.97.59,1.98,1.24,3.01.77,1.23,1.71,2.22,2.8,2.92.7.47,1.53.79,2.44.99.94.22,1.91.24,2.94.11,1.47-.23,2.94-.79,4.42-1.76.93-.57,1.78-1.23,2.58-1.98.8-.75,1.68-1.75,2.64-3l-1.07-1.48c-.2-.33-.51-.89-.98-1.68l-.24-.6.56-.81-.42-.65-2.96,1.92-2.99,1.82.49.78c1.08-.58,1.74-.91,2.01-.96h.38c.12.07.38.43.77,1.07l.57.93.59,1.04-.99,1.23-1.19.94c-1.52.95-3.17,1.17-4.96.69-1.77-.5-3.27-1.73-4.5-3.69-1.12-1.83-1.52-3.53-1.17-5.19.35-1.65,1.35-3,3.02-4.04.71-.44,1.39-.75,2.06-.93.62-.2,1.27-.29,1.92-.27l.85.16.56.69.64.9.79-.49c-.79-1.57-1.3-2.7-1.51-3.38l-.18-.13ZM258.4,68.89l-.59.73c.68.68,1.06,1.11,1.17,1.29v.27c-.05.18-.41.66-1,1.42l-1.51,1.93-2.75,3.33-2.25,2.58-.96.94-.27.21-.24-.05c-.14-.04-.59-.35-1.3-.89l-.64.78c.89.68,1.77,1.37,2.63,2.09,1.05.86,2.07,1.75,3.08,2.61l.64-.77c-.57-.49-.88-.79-.99-.94l-.2-.31v-.2s.44-.73.44-.73c.13-.2.68-.89,1.67-2.16.82-1.01,1.59-1.97,2.32-2.86.48-.57,1.44-1.67,2.85-3.34.64-.74,1.07-1.2,1.25-1.44l.91.66c.66.51,1.07.93,1.24,1.26.27.44.38.98.36,1.56-.04.56-.3,1.16-.75,1.68-.44.53-.98.92-1.59,1.15-.62.27-1.19.32-1.67.17-.51-.11-1.14-.48-1.81-1.11l-.36.2.08,1.06c-.06.83-.18,1.94-.36,3.29l-.71,4.76-.2.68,1.45,1.14c.43.34,1.07.91,1.99,1.67l.6-.75-.53-.52-.11-.47c0-.2.03-.75.06-1.74,0-.06.05-.51.14-1.37l.33-3.26.02-.25.08-.79.18-1.25c1.23.42,2.31.53,3.22.3.95-.21,1.7-.68,2.29-1.42.53-.61.78-1.25.81-1.95.03-.71-.15-1.32-.5-1.82-.35-.54-1.01-1.18-1.94-1.96-.49-.4-1.12-.88-1.87-1.47-.49-.33-1.03-.79-1.65-1.3-.75-.6-1.32-1.07-1.69-1.42-.81-.7-1.26-1.1-1.41-1.21h0ZM200.27,72.38c-37.93,0-70.58,27.98-76.43,65.26-.76,2.08-3.2,10.13.68,18.56,0,0-3.68-1.92-5.29-2.1,0,0-1.11,6.76,3.05,11.58,0,0-3.37-.63-7.06,1.44,0,0,3.85,8.19,12.53,10.92,0,0,.64,1.59,1.28,2.73,0,0-5.77-.97-11.4,1.45,0,0,4.65,5.13,6.43,5.95,0,0,4.33,2.72,6.58,3.05l-1.78.62s8.05,10.76,15.27,12.05c0,0-5.12,1.41-7.07,3.86,0,0,9.16,8.5,21.2,5.94,0,0-2.59,2.73-3.86,5.47,0,0,8.02,2.24,16.06-.67l-.82,1.96s5.3,1.09,13.02-4.03l3.2,2.26s-9.3,1.59-15.41,3.84l6.42,4.66s.65-.67,4.98-2.71c0,0,12.06,2.45,18.42,2.23,6.37.23,18.41-2.23,18.41-2.23,4.35,2.04,4.98,2.71,4.98,2.71l6.4-4.66c-6.09-2.25-15.4-3.84-15.4-3.84l3.21-2.26c7.71,5.12,13.01,4.03,13.01,4.03l-.82-1.96c8.05,2.91,16.08.67,16.08.67-1.28-2.74-3.86-5.47-3.86-5.47,12.04,2.56,21.21-5.94,21.21-5.94-1.97-2.45-7.07-3.86-7.07-3.86,7.22-1.29,15.27-12.05,15.27-12.05l-1.78-.62c2.25-.33,6.6-3.05,6.6-3.05,1.76-.81,6.41-5.95,6.41-5.95-5.6-2.43-11.39-1.45-11.39-1.45.64-1.14,1.28-2.73,1.28-2.73,8.66-2.73,12.52-10.92,12.52-10.92-3.71-2.07-7.07-1.44-7.07-1.44,4.17-4.83,3.05-11.58,3.05-11.58-1.6.18-5.31,2.1-5.31,2.1,4.13-8.95,1.15-17.42.61-18.82-5.97-37.17-38.53-64.99-76.35-64.99h0ZM132.78,74.8c-.63.79-1.27,1.57-1.92,2.35-.56.59-1.15,1.27-1.84,1.95l.75.65c.72-.77,1.19-1.2,1.42-1.23l.56.22c.62.42,2.55,2.04,5.76,4.85l2.06,1.81c-1.58.09-3.67.09-6.28.02-3.63-.08-6.78-.22-9.45-.41l-.7.86-1.12,1.31c-.29.37-.82.9-1.53,1.62l.77.67c.59-.59.96-.94,1.11-1.03l.4-.16.4.12.89.68,2.64,2.25,2.87,2.53c.8.69,1.44,1.24,1.91,1.72.82.81,1.35,1.35,1.53,1.57l.23.41-.04.27c-.06.12-.38.56-.96,1.28l.76.68c.84-1.02,1.51-1.82,2.02-2.42.13-.13.7-.77,1.7-1.91l-.72-.62-.15.18-.81.79-.35.22-.28-.03c-.21-.08-.66-.42-1.37-1-1.02-.86-2.01-1.68-2.93-2.48l-4.45-3.92c7.41.26,13.04.37,16.87.32.53-.46,1.04-.89,1.57-1.32l.02-.2c-.91-.66-3.35-2.71-7.31-6.2-.5-.44-1.29-1.15-2.32-2.1-1.05-.97-1.68-1.63-1.89-1.97l-.05-.22c.02-.21.37-.68.97-1.44l-.75-.66ZM200.27,76.6c36.23,0,67.37,27.02,72.4,62.88h.03c-.96.81-1.82,1.74-2.56,2.76l-1.69,2.83c-3.01,6.27-2.25,13.21-2.25,13.21-6.42-5.79-16.53-1.1-16.53-1.1.32,1.1,3.69,3.67,3.69,3.67.15,12.16,7.38,14.63,7.38,14.63-2.56,1.92-3.21,4.02-3.21,4.02-3.71-4.67-11.89-3.69-11.89-3.69,0,8.49,9,12.67,9,12.67-.81,3.68-.33,5.48-.33,5.48-3.04,1.43-6.41,5.62-6.41,5.62.95-9.02-2.26-12.07-2.26-12.07-5.46,3.23-7.7,9.32-7.7,9.32-9.17.96-14.15,7.55-14.15,7.55l.64-2.9c-17.02,3.7-16.87,15.72-16.87,15.72l-.79-.3c-.9-5.47-5.99-5.35-6.54-5.29-.54-.05-5.61-.18-6.53,5.29l-.81.3s.15-12.02-16.86-15.72l.64,2.9s-4.98-6.59-14.13-7.55c0,0-2.25-6.09-7.71-9.32,0,0-3.21,3.04-2.24,12.06,0,0-3.37-4.19-6.41-5.62,0,0,.47-1.8-.33-5.48,0,0,8.99-4.18,8.99-12.67,0,0-8.19-.99-11.88,3.69,0,0-.65-2.1-3.22-4.02,0,0,7.23-2.46,7.39-14.63,0,0,3.36-2.57,3.7-3.66,0,0-10.14-4.69-16.53,1.1,0,0,1.36-12.3-6.63-18.92l.15.02c5.05-35.81,36.19-62.79,72.42-62.79h0ZM200.01,82.06v.07l-3.02,3.14-.16,5.64c-7.68,1.36-26.07,7.02-19.06,30.23,0,0-27.32,12.51-25.76,35.33,0,0-1.56,24.59,24.78,25.95,0,0,20.67.88,16.4-17.46h-8.78s6.04,9.45-4.7,11.01c0,0-12.5,2.15-11.7-17.75,0,0,1.36-23.01,18.93-36.66,0,0-5.86-6.65-2.73-14.64,0,0,2.57-8.98,12.49-11.25l-.88,31.46,4.2,2.56v.07l.04-.05.06.05v-.07l4.18-2.56-.87-31.42c9.83,2.28,12.4,11.21,12.4,11.21,3.12,7.99-2.75,14.64-2.75,14.64,17.57,13.66,18.94,36.66,18.94,36.66.79,19.9-11.72,17.75-11.72,17.75-10.73-1.55-4.69-11.01-4.69-11.01h-8.78c-4.29,18.33,16.41,17.46,16.41,17.46,26.33-1.35,24.79-25.95,24.79-25.95,1.54-22.82-25.78-35.33-25.78-35.33,6.99-23.1-11.21-28.83-18.96-30.2l-.17-5.67-3-3.14v-.07l-.06.02-.04-.02ZM273.3,84.35c-.39-.01-.78.03-1.16.11-.84.14-1.56.48-2.27,1.03l-1.21,1.29c-.29.49-.48,1.03-.54,1.6-.05.55.06,1.16.29,1.82.17.44.56,1.31,1.2,2.63.42.94.67,1.6.75,2.04l-.16,1.17-.82,1-1.5.68c-.53.04-1.06-.07-1.64-.38-.56-.3-1.07-.72-1.53-1.32-.52-.68-.85-1.42-.99-2.19-.15-.83-.14-1.48.08-2.02.6-.58,1.13-1.04,1.58-1.39l-.61-.78c-1.43,1.12-2.6,1.84-3.45,2.19.2,1,.46,1.85.78,2.53.36.78.81,1.52,1.34,2.2.8,1.04,1.64,1.85,2.51,2.34.55.32,1.19.56,1.89.71.71.15,1.4.18,2.02.1.87-.14,1.7-.53,2.48-1.13l1.1-1.13.55-1.14.06-1.24c-.04-.43-.2-.97-.44-1.56-.11-.25-.37-.7-.76-1.45-.37-.7-.66-1.3-.86-1.7-.24-.58-.39-1.04-.42-1.39l.18-1.03.84-.98c.58-.43,1.25-.58,2.04-.46.78.15,1.48.65,2.14,1.5.43.58.72,1.18.9,1.82.15.64.16,1.15.04,1.55-.26.31-.76.71-1.44,1.29l.57.76c.66-.47,1.21-.82,1.62-1.1l1.34-.71.15-.24c-.13-.62-.36-1.28-.73-2-.35-.72-.79-1.38-1.29-2.04-.48-.64-1.03-1.21-1.64-1.72-.59-.49-1.24-.83-1.92-1.06-.35-.13-.71-.2-1.08-.21h0ZM283.41,94.87l-.88.57c.41.72.66,1.16.68,1.27l.04.32-.13.22c-.18.17-.67.51-1.48,1.07-.34.26-1.2.78-2.5,1.57l-4.1,2.56c-.68.42-1.41.86-2.22,1.27-.56.3-1.13.67-1.23.71l-.21.02-.28-.24c-.09-.09-.37-.46-.82-1.11l-.85.51c.62.91,1.23,1.83,1.81,2.77.7,1.15,1.39,2.31,2.06,3.48l.86-.56c-.38-.64-.61-1.03-.66-1.19l-.06-.36.12-.27c.17-.19.83-.7,1.49-1.12l1.78-1.14,3.96-2.46c.12-.06.99-.59,2.61-1.56l.97-.56.7-.32.24.03.28.17c.1.12.36.49.81,1.16l.86-.55c-.74-1.11-1.46-2.23-2.18-3.35-.58-.95-1.14-1.91-1.68-2.89h0ZM120.31,95.2c-.69-.03-1.46.06-2.3.31-.85.24-1.63.65-2.36,1.2-.94.77-1.81,1.74-2.59,2.94-.77,1.2-1.32,2.41-1.63,3.66-.24.99-.26,1.99-.07,3.07.19,1.1.62,2.14,1.27,3.05.67.95,1.58,1.79,2.79,2.55,1.55,1.02,3.06,1.56,4.49,1.63,1.42.06,2.75-.24,3.98-.96,1.21-.71,2.32-1.82,3.25-3.34.9-1.34,1.45-2.67,1.7-4.04.17-.98.14-1.98-.08-3-.22-1-.61-1.91-1.2-2.71-.79-1.12-1.8-2.07-3.03-2.88-.73-.47-1.46-.82-2.15-1.06-.67-.25-1.38-.39-2.09-.43ZM117.83,98.31c.79,0,1.61.11,2.51.38.9.31,1.81.77,2.71,1.34,1.36.91,2.37,1.8,3.07,2.76.7.97,1.02,1.91,1.02,2.83-.03.91-.32,1.78-.86,2.62-.57.86-1.27,1.53-2.11,1.91-.85.39-1.91.49-3.18.25-1.27-.21-2.68-.83-4.21-1.8-1.06-.71-1.94-1.49-2.62-2.37-.69-.86-1.04-1.79-1.06-2.74,0-.99.29-1.95.9-2.88.55-.86,1.13-1.44,1.73-1.76.61-.33,1.31-.52,2.08-.55ZM288.92,103.89l-.99.54c-.19.09-1.01.47-2.46,1.11l.37.9c.63-.26,1.21-.46,1.77-.57l.43-.03.26.39c.3.56.62,1.24.95,2l.67,1.55c-.2.11-1.18.55-2.94,1.28l-6.47,2.79c-1.56.68-2.5,1.04-2.85,1.11l-.56-.18c-.16-.11-.46-.59-.84-1.44l-.9.39c.64,1.28,1.18,2.47,1.62,3.48.43.95.89,2.15,1.42,3.58l.88-.39c-.34-.87-.5-1.42-.49-1.63l.26-.49c.3-.22,1.21-.66,2.77-1.33l6.47-2.77c1.72-.75,2.7-1.16,2.98-1.25l.65,1.54c.31.71.58,1.43.83,2.16l.07.39-.39.35c-.5.28-1,.58-1.56.85l.39.87c1.53-.61,2.33-.93,2.38-.97l1.2-.37.07-.18-.51-.95c-.28-.59-.81-1.83-1.59-3.62l-1.87-4.36c-.52-1.19-1.02-2.38-1.51-3.58l-.39-1.1-.14-.04ZM107.28,111.75c-.25.89-.6,1.93-1.03,3.14-.5,1.44-1.03,2.87-1.6,4.29l.98.36.57-1.5.28-.39.25-.07c.15-.03.62.11,1.39.34.79.26,1.63.55,2.57.87l8.68,3.07c.18.05,1.02.38,2.57.99.78.29,1.27.52,1.49.65l.43.55-.06.7-.39.65-.94.67.04.31c.86.3,1.52.54,2.02.77l.46-.84c.15-.4.22-.86.17-1.41-.02-.53-.15-1.12-.33-1.73-.23-.64-.48-1.21-.78-1.7-.45-.71-.99-1.33-1.63-1.78-.63-.47-1.54-.9-2.73-1.34l-4.76-1.62-4.01-1.42c-1.09-.39-1.92-.71-2.51-.99l-.5-.36-.07-.5c.03-.16.16-.62.42-1.36l-.97-.35ZM280.33,122.43l-.93.24.69,2.61.57,2.64.95-.22c-.2-.92-.27-1.48-.2-1.69l.36-.29c.25-.07.94-.04,2.08.12l1.5.17,1.41,5.87-2.28,1.59-.86.46-.37-.09c-.09-.09-.26-.63-.54-1.51l-.94.23,1.03,3.98.71,3.2.93-.22-.06-.51-.07-.7.07-.25.26-.29.93-.7,1.4-1.1,10.67-7.94-.37-1.64-2.85-.37-8.05-1.25c-1.54-.22-2.56-.36-3.07-.44-1.12-.19-1.76-.31-1.93-.36l-.42-.16-.22-.28c-.07-.09-.21-.46-.4-1.07h0ZM103.63,123.25l-.18.04-.15.35c-.25.82-.36,1.39-.43,1.67l-.47,2.3c-.28,1.27-.53,2.41-.77,3.45l-.35,1.49-.68,2.62.98.2c.26-.88.44-1.38.57-1.57l.22-.13c.19-.05.73.04,1.59.2,1.27.27,2.01.43,2.21.46l5.09,1.2c.61.14,1.54.41,2.81.76.72.19,1.22.35,1.53.47l.37,1.26.63.15c.49-2.35.77-3.63.82-3.82.14-.66.46-1.9.91-3.68l.45-1.82c.2-.89.33-1.58.39-2.08l-.12-.18c-.97-.22-2.18-.59-3.63-1.09l-.23.92c.99.39,1.64.67,1.97.9l.16.18c.07.2.05.62-.06,1.35-.11.7-.27,1.45-.44,2.28-.17.73-.36,1.45-.57,2.16-.4-.09-.86-.16-1.4-.3l-4.8-1.11c.08-.5.18-1.11.34-1.84.2-.82.4-1.46.6-1.97l.39-.42c.24-.07.79,0,1.66.2l.22-1-2.48-.51-2.48-.63-.23.93c.68.18,1.14.33,1.4.5l.19.22-.07.73c-.13.63-.26,1.25-.38,1.88-.15.58-.3,1.11-.46,1.58l-2.31-.52c-1.33-.31-2.39-.62-3.22-.91.11-.71.24-1.42.4-2.08.17-.74.38-1.46.64-2.17l.41-.86.24-.11c.21,0,.78.11,1.67.29l.2-.87c-.94-.29-1.49-.47-1.59-.49l-1.57-.58ZM286.79,126.22l6.43.93-5.29,3.83c-.19-.66-.39-1.46-.61-2.31-.2-.92-.4-1.73-.53-2.45ZM188.26,130.07c-2.75-.02-5.89.61-9.29,2.38l-8.02,27.15s13.47-7.44,26.55,1.56h.01c.56.36,1.46.61,2.5.61s1.92-.25,2.47-.61h.06c13.08-9,26.53-1.56,26.53-1.56l-8.01-27.15c-12.1-6.32-20.78,1.88-21.06,2.14-.17-.18-4.71-4.47-11.75-4.52h0ZM188.64,131.84c3.12.1,6.99.98,11.37,3.53v.02h0v-.02c11.71-6.79,19.69-1.72,19.69-1.72l5.86,22.23c-13.14-4.23-25.28,3.73-25.55,3.9-.24-.18-12.42-8.13-25.53-3.9l5.83-22.23s3.13-1.98,8.33-1.81h0ZM206.36,136.62l-.09.83.67.1.2.12.08.16.03.43c0,.2-.03.71-.05,1.51l-.1,1.88-.22,3.52c-.06,1.32-.17,2.5-.25,3.56l-.12.74-.09.12-.83.11-.06.89c.5-.01,1.05,0,1.59.03.51.04,1.28.09,2.27.2l.05-.89-.8-.12-.19-.15-.06-.16c-.02-.15-.02-.53,0-1.1.02-.99.06-1.97.13-2.92l.22-3.76.14-1.97c.04-.78.11-1.38.15-1.8l.74-.09,1.05.75c.23.47.32,1.16.25,2.09-.04.88-.22,1.53-.49,1.97l-.97.64-.2-.07-.23-.11-.14.2.16.72.35.13.37.05,1.45-.53c.45-.38.81-.9,1.05-1.53.25-.66.4-1.34.43-2.08.03-.73-.01-1.4-.21-1.86l-.71-1-1.21-.37-2.64-.07-1.72-.16ZM191,136.64c-.55,0-1.03.08-1.5.24l-1.3.78c-.4.36-.78.84-1.12,1.41-.31.59-.58,1.27-.76,2.04-.18.77-.27,1.69-.27,2.74,0,1.24.13,2.38.42,3.39.17.64.42,1.26.76,1.83.35.57.75,1.02,1.23,1.4.69.49,1.47.77,2.36.77.55,0,1.09-.1,1.64-.28.53-.22,1.18-.51,1.93-.97l-.06-1.58c0-.32,0-.88.03-1.65l.05-.53.46-.35v-.64l-1.78.02-1.76-.02v.8c.6.06.98.11,1.12.19l.15.18c.03.1.06.5.06,1.14l-.03.91c0,.54-.02.88-.03,1.04l-.71.41-.78.14c-.92,0-1.68-.57-2.31-1.74-.61-1.15-.94-2.72-.94-4.7,0-1.8.31-3.2.9-4.25.59-1.04,1.37-1.56,2.36-1.56l1.13.26.89.67.32.51.05.76.04.95h.47c.08-1.49.17-2.54.27-3.14l-.06-.17c-.33-.24-.78-.46-1.36-.7-.57-.2-1.19-.29-1.86-.29h0ZM199.64,136.82l-.52,2.25-1.55,6.45c-.29,1.23-.5,2.03-.57,2.44-.24.9-.38,1.4-.43,1.54l-.12.31-.17.12-.55.13v.82l1.35-.05,1.36.05v-.82l-.84-.19-.09-.33c0-.25.09-.81.28-1.72l.26-1.23h3.04l.53,2.23.12.8-.09.31-.79.14v.82l2.07-.05,1.63.05v-.82l-.25-.07-.35-.08-.12-.1-.1-.27-.26-.91-.36-1.36-2.63-10.44h-.84ZM214.17,137.13l-.13.85.81.3.09.17c0,.15-.03.61-.13,1.35-.14,1.14-.24,1.78-.27,1.93l-.65,4.45c-.08.53-.21,1.35-.41,2.48-.11.61-.18,1.06-.26,1.34l-.66.49-.09.53c1.22.14,1.88.22,1.97.22.36.05.99.18,1.92.33l.94.16,1.06.1.1-.14c.13-.83.33-1.91.61-3.22l-.49-.07c-.2.88-.35,1.48-.49,1.78l-.08.17-.68.11-1.2-.11-1.11-.22.17-1.23.61-4.18.94.06,1.02.26.22.3c.03.17,0,.66-.12,1.43l.5.07.3-2.17.34-2.18-.48-.07c-.08.59-.19,1-.25,1.26l-.13.2h-.38c-.56-.04-.88-.11-.97-.12l-.82-.15.28-2.01c.18-1.18.33-2.12.51-2.85l1.07.09,1.12.29.45.22.02.22c0,.18-.03.64-.13,1.42l.45.09c.14-.86.24-1.33.27-1.42l.31-1.42-.02-.13-.17-.09-.86-.17-1.2-.11c-.6-.07-1.19-.15-1.78-.24l-.77-.1-1.34-.26ZM182.21,138.02l-.83.09-.35,2.3-1.04,6.53c-.17,1.26-.33,2.07-.39,2.49-.07.52-.17,1.03-.27,1.55l-.1.32-.14.15-.57.13.07.84,1.34-.17,1.38-.04-.07-.83-.86-.13-.12-.31c-.02-.22.02-.81.16-1.73l.17-1.23,3.03-.24.68,2.16.2.8-.08.3-.79.2.07.82,2.06-.23,1.64-.07-.05-.82-.28-.02-.34-.04-.15-.11-.12-.24-.32-.92-.47-1.33-3.46-10.2ZM110.93,139.82c-.52-.03-1.05.04-1.54.2l-1.15.52-.82.91c-.25.4-.46.9-.64,1.53-.12.52-.24,1.05-.35,1.58-.11.63-.24,1.26-.37,1.89-.18.57-.36,1.02-.56,1.34l-.78.66-1.27.24c-.7,0-1.34-.31-1.87-.91-.51-.6-.77-1.44-.74-2.48.02-.75.17-1.41.46-2,.27-.62.57-1.01.94-1.25.38-.05,1.03-.07,1.93-.07l.02-.98c-.64-.02-1.28-.08-1.92-.17l-1.5-.27-.28.1c-.32.56-.53,1.23-.71,2.02-.16.79-.26,1.59-.28,2.4-.01.79.05,1.59.2,2.35.17.75.44,1.45.84,2.06.39.61.96,1.11,1.69,1.5.72.39,1.53.59,2.39.62.63,0,1.23-.08,1.78-.27.54-.2,1-.47,1.4-.88.39-.41.7-.93.93-1.62.16-.44.37-1.38.7-2.78.26-.99.51-1.67.72-2.04l.87-.86,1.26-.26c.6.04,1.11.16,1.57.44.46.29.81.72,1.05,1.31.26.59.38,1.25.36,2-.04.85-.22,1.64-.61,2.34-.39.71-.83,1.22-1.33,1.51-.84.08-1.55.1-2.12.07v.98c1.82.06,3.17.22,4.07.49.41-.79.74-1.61.99-2.46.18-.75.29-1.6.31-2.58.05-1.29-.11-2.44-.46-3.38-.24-.63-.59-1.22-1.03-1.73-.43-.54-.94-.99-1.52-1.36-.76-.42-1.65-.64-2.64-.67h0ZM125.05,139.87c10.63,7.98,6.85,19.93,6.85,19.93,0,0-3.13-12.51-4.5-14.5,0,0-.61-.79-1.17-.51-.23.12-.43.38-.6.97,0,0,1.91,5.43,3.21,9.77.58,2.02,1.05,3.79,1.15,4.69-8.66-7.46-4.95-20.34-4.95-20.34h0ZM275.49,139.87s3.69,12.89-4.94,20.34c.07-.89.56-2.67,1.15-4.69l.02-.07c1.29-4.32,3.17-9.7,3.17-9.7-.15-.58-.37-.84-.59-.97-.55-.29-1.17.51-1.17.51-1.38,1.99-4.51,14.5-4.51,14.5,0,0-3.77-11.96,6.87-19.93h0ZM199.55,140.3l1.26,5.17h-1.22s-1.26,0-1.26,0l1.22-5.17ZM295.45,140.64c-.22-.01-.43-.01-.65,0-.61.02-1.19.12-1.74.35-.52.23-.99.57-1.36,1-.36.38-.63.97-.81,1.66-.13.44-.3,1.39-.55,2.81-.18.99-.37,1.66-.58,2.1l-.81.9-1.24.32c-.56.02-1.11-.1-1.61-.34-.46-.23-.83-.66-1.13-1.23-.28-.57-.44-1.24-.47-1.96-.03-.87.15-1.64.47-2.38.35-.74.76-1.27,1.24-1.58.81-.13,1.51-.22,2.07-.22l-.03-.97c-1.82.05-3.19,0-4.08-.22-.38.8-.66,1.63-.85,2.49-.13.76-.2,1.61-.16,2.6.05,1.3.29,2.42.68,3.32.27.63.66,1.2,1.13,1.69.5.53,1.03.96,1.62,1.26.76.38,1.65.55,2.66.52.53-.02,1.05-.11,1.54-.29l1.12-.6.76-.98c.23-.39.39-.9.54-1.54.03-.26.13-.79.21-1.62.12-.8.22-1.43.29-1.89.15-.59.3-1.07.47-1.36l.74-.75,1.25-.31c.71-.03,1.34.23,1.91.79.56.57.86,1.4.91,2.44.03.69-.09,1.39-.35,2.03-.24.59-.53,1.05-.86,1.31-.37.07-1.02.14-1.92.19l.03.98c.79,0,1.46.02,1.92.02l1.52.19.28-.09c.26-.59.45-1.27.56-2.04.13-.81.17-1.58.14-2.42-.03-.79-.14-1.58-.35-2.35-.2-.75-.53-1.41-.95-1.99-.44-.6-1.03-1.05-1.77-1.39-.57-.27-1.18-.42-1.81-.46h0ZM181.55,141.58l1.67,5.05-1.2.12-1.26.07.79-5.25ZM143.16,157.27c.53.02,1.08.07,1.67.14,0,0-7.45,2.25-11.08,5.07,0,0,1.49-5.52,9.41-5.21ZM257.36,157.27c7.93-.31,9.43,5.21,9.43,5.21-3.61-2.82-11.1-5.07-11.1-5.07.56-.07,1.11-.12,1.67-.14ZM122.61,157.47c6.97,2.51,8.66,10.78,8.66,10.78l-2.58-1.44c-4.08-4.98-6.08-9.34-6.08-9.34h0ZM277.95,157.47s-2.02,4.36-6.1,9.34l-2.59,1.44s1.7-8.27,8.69-10.78ZM146.11,159.1s-4.41,3.82-9.93,4.11c0,0,5.14-3.07,9.93-4.11ZM254.4,159.1c4.82,1.03,9.94,4.11,9.94,4.11-5.52-.28-9.94-4.11-9.94-4.11h0ZM121.49,159.32c1.75,3.88,4.32,6.52,4.32,6.52h-.82c-3.45-3.31-3.5-6.52-3.5-6.52ZM279.06,159.32s-.09,3.22-3.54,6.52h-.8s2.58-2.64,4.33-6.52ZM106.37,160.56c-2.43,0-4.39,1.97-4.39,4.4,0,2.42,1.95,4.38,4.37,4.38,0,0,.01,0,.02,0,2.41,0,4.39-1.96,4.39-4.38s-1.97-4.4-4.39-4.4h0ZM294.08,161.17c-2.44,0-4.38,1.99-4.38,4.4s1.94,4.39,4.38,4.39c2.42,0,4.38-1.95,4.39-4.37,0,0,0-.01,0-.02,0-2.41-1.94-4.4-4.39-4.4ZM145.09,162.06s.38,8.29-5.95,11.45c0,0,2.33-4.81,3.29-9.82l2.66-1.63ZM255.46,162.06l2.66,1.63c.97,5.01,3.29,9.82,3.29,9.82-6.35-3.16-5.95-11.45-5.95-11.45ZM195.53,162.67v19.26c5.45,2.72,9.35,0,9.35,0v-19.26c-5.85,3.72-9.35,0-9.35,0ZM140.24,164.32s-1.51,6.59-2.86,8.27c0,0-.57-4.74.33-7.63l2.53-.64ZM260.27,164.32l2.57.64c.88,2.88.33,7.63.33,7.63-1.38-1.68-2.91-8.27-2.91-8.27h0ZM135.52,165.44s-.48,4.97,0,6.9l-1.93-2.25s-.79-3.76-1.2-4.57l3.13-.08ZM265.02,165.44l3.13.08c-.42.8-1.21,4.57-1.21,4.57l-1.92,2.25c.48-1.93,0-6.9,0-6.9h0ZM122.04,167.45c9.04-.05,12.13,6.58,12.13,6.58-5.31-3.12-14.29-6.11-14.29-6.11-.81-.22-1.36.89-1.36.89l-.72-.89c1.54-.32,2.96-.46,4.25-.47ZM278.48,167.45c1.29,0,2.7.15,4.25.47l-.69.89s-.57-1.11-1.38-.89c0,0-8.98,2.99-14.3,6.11,0,0,3.08-6.63,12.12-6.58h0ZM119.38,169.85c6.66,1.77,14.53,6.32,14.53,6.32-8.75,1.94-14.53-6.32-14.53-6.32ZM281.14,169.85s-5.76,8.26-14.52,6.32c0,0,7.88-4.55,14.52-6.32ZM285.81,174.47l-.93,2.5c-.09.22-.29.68-.62,1.38l.94.92c.24.25.89.94,1.93,2.08l1.86,2.01c.49.55,1.17,1.28,2.04,2.3l-6.53.45-1.49.07-1.94.09c-.19.59-.4,1.17-.64,1.74-.16.44-.51,1.19-.99,2.35l.7.28.51-.94.2-.25.21-.02c.2,0,.72.18,1.61.51.85.34,1.87.74,2.99,1.19,1.25.49,2.15.86,2.65,1.09,1.05.44,1.72.78,2.03.93l.29.22.04.2c0,.15-.09.56-.31,1.19l.71.28c.16-.53.41-1.2.76-2.05.26-.65.54-1.27.81-1.9l-.7-.29c-.26.56-.43.9-.51.99l-.24.19h-.32c-.14-.03-.67-.23-1.62-.59-.82-.29-1.64-.6-2.44-.95l-4.1-1.62,5.34-.4c.82-.06,2.06-.12,3.71-.21.95-.05,1.71-.09,2.26-.09l.22-.58-1.17-1.2c-.79-.85-1.4-1.5-1.8-1.94l-1.56-1.69-3.13-3.5,6.06,2.43c1.16.45,1.84.75,2.04.9l.3.35c.02.13-.11.54-.35,1.23l.72.28,1-2.61,1.09-2.61-.7-.29c-.29.59-.45.93-.49,1l-.2.13-.24.02c-.16-.04-.62-.15-1.34-.41-.11-.03-.53-.2-1.25-.47l-2.91-1.18-2.34-.97-1.04-.46-.69-.51c-.07-.21,0-.58.24-1.17l.04-.09-.71-.29ZM110.45,175.54c-.84-.01-1.7.15-2.6.49-1.02.44-1.91,1-2.62,1.79-.48.5-.85,1.1-1.16,1.79-.31.73-.47,1.52-.46,2.32-.02,1.05.24,2.21.68,3.38.35.84.71,1.52,1.07,2,.36.52.86,1.03,1.51,1.59l1.01.06.11-.32c-.55-.45-1-.91-1.33-1.38-.34-.46-.61-.98-.84-1.53-.35-.88-.52-1.68-.51-2.41.04-.51.17-1.09.45-1.73.25-.59.68-1.18,1.23-1.72.56-.53,1.3-.96,2.22-1.35,1.49-.61,2.79-.65,3.94-.22,1.18.46,2,1.32,2.55,2.68.29.72.44,1.37.41,1.89,0,.56-.13,1.09-.36,1.62-.35.21-.83.43-1.44.69l.25.64c.61-.19,1.22-.37,1.83-.54l1.08-.19.09-.1c-.02-.78-.1-1.55-.25-2.31-.13-.66-.35-1.34-.65-2.12-.9-2.22-2.14-3.68-3.73-4.44-.77-.37-1.61-.57-2.47-.59h0ZM138.41,177.31s5.46,1.69,6.01,15.66l-.8-.24s-3.44-5.79-3.76-10.04c0,0-.81-4.66-1.45-5.39h0ZM262.11,177.31c-.64.72-1.42,5.39-1.42,5.39-.33,4.25-3.79,10.04-3.79,10.04l-.81.24c.55-13.97,6.02-15.66,6.02-15.66h0ZM136.56,177.72s1.93,5.55,1.7,6.9c0,0,1.84,6.27,2.72,7.08l-2.15-.35s-3.7-5.53-2.27-13.63h0ZM263.97,177.72c1.45,8.1-2.25,13.63-2.25,13.63l-2.17.35c.88-.81,2.74-7.08,2.74-7.08-.25-1.35,1.69-6.9,1.69-6.9h0ZM134.55,177.87s-.39,3.36-.05,5.31l-3.08-2.09-1.42-2.81s3.43.24,4.55-.42h0ZM150.22,177.87c-1.85,1.14-5.63,4.49-5.63,4.49l-.4-1.2c2.26-3.43,6.03-3.29,6.03-3.29ZM250.31,177.87s3.78-.15,6.03,3.29l-.4,1.2s-3.78-3.35-5.62-4.49h0ZM265.97,177.87c1.12.65,4.58.42,4.58.42l-1.45,2.81-3.05,2.09c.31-1.95-.09-5.31-.09-5.31h0ZM152.3,178.77c-.87,4.74-6.57,7.46-6.57,7.46l-.32-1.93c1.69-2.17,6.89-5.52,6.89-5.52h0ZM248.23,178.77s5.22,3.35,6.91,5.52l-.35,1.93s-5.68-2.72-6.57-7.46h0ZM126.49,182.44c8.43.07,9.36,6.94,9.36,6.94-5.07-5.15-12.52-6.51-12.52-6.51-1.84,0-.73,1.51-.73,1.51,8.02,2.24,11.08,5.79,11.08,5.79-6.1-.66-12.69-6.99-12.69-6.99,2.12-.54,3.94-.76,5.5-.75h0ZM274.04,182.44c1.56-.01,3.38.21,5.5.75,0,0-6.58,6.34-12.68,6.99,0,0,3.06-3.55,11.1-5.79,0,0,1.12-1.51-.74-1.51,0,0-7.47,1.36-12.51,6.51,0,0,.91-6.87,9.34-6.94h0ZM118.33,185.57l-.66.36c.33.66.47,1.08.49,1.27l-.09.18c-.09.12-.49.38-1.14.74l-1.67.93-2.98,1.61-2.37,1.16-.98.41-.26.07-.16-.1c-.1-.09-.33-.42-.66-1.04l-.7.39c.44.75.86,1.51,1.27,2.28.5.92.98,1.84,1.43,2.78l.72-.37-.44-.95-.05-.26.06-.18.54-.39c.15-.09.76-.44,1.84-1.04.83-.5,1.67-.96,2.54-1.38.51-.29,1.51-.81,3.05-1.6.68-.32,1.11-.52,1.33-.63l.44.72c.31.57.48,1,.53,1.26l-.22,1.23-1.03,1.02-1.5.35-1.26-.38c-.34-.25-.66-.71-.99-1.33l-.29.04-.27.79c-.26.59-.68,1.35-1.25,2.26l-1.9,3.22-.36.43.71,1.25c.2.39.5.98.91,1.81l.66-.35-.19-.55.06-.35c.04-.13.23-.57.55-1.24.02,0,.19-.36.5-.96l1.22-2.23.08-.18.31-.55.48-.83c.77.67,1.51,1.04,2.27,1.18.71.11,1.41,0,2.07-.34.53-.29.92-.66,1.16-1.19l.16-1.45c-.1-.48-.38-1.15-.83-1.97-.29-.55-.59-1.1-.9-1.64-.24-.38-.49-.86-.8-1.42-.35-.66-.62-1.16-.8-1.53-.37-.73-.58-1.18-.66-1.3h0ZM185.43,186.95c-1.58.59-2.73,1.01-3.48,1.26-.75.23-1.75.56-3.01.91l-.02.07.13.66.1.68.12.07c.38-.23,1.25-.61,2.61-1.21l.46-.18.16.11.07.42.02.91c.02,1,.03,1.95.03,2.82v2.53c0,1.88-.04,3.09-.12,3.66l-.21.57-.48.16-2,.23v.87c2.32-.04,3.82-.07,4.47-.07.95,0,2.19.02,3.73.07v-.87l-.68-.05c-.83-.04-1.33-.12-1.49-.19l-.22-.22c-.08-.16-.11-.66-.12-1.58-.06-.58-.08-1.65-.08-3.17v-1.58c.04-2.52.08-4.08.09-4.67,0-.16.03-.52.07-1.06.04-.57.07-.88.07-1l-.24-.15ZM208.78,186.99c-.13,0-.57.08-1.37.26l-1.25.24c-.3.38-.79,1.09-1.47,2.19-.67,1.07-1.5,2.56-2.48,4.45-.71,1.38-1.17,2.33-1.34,2.87l.13.89c1.28-.05,2.53-.05,3.8-.05h1.41c-.05,1.1-.05,1.71-.07,1.83l-.18.64-.33.15c-.17.06-.81.09-1.96.17v.87l3.64-.07,2.7.05.84.02v-.87l-1.36-.13-.43-.19-.18-.33c-.05-.37-.06-1.08-.06-2.13h1.98l-.08-.78.08-.94-.08-.11-1.51.06h-.4v-2.37c.02-2.24.03-3.66.06-4.31.04-.98.07-1.74.11-2.22l-.19-.17ZM194.81,187.22c-1.37,0-2.48.45-3.36,1.39-.89.95-1.34,2.18-1.34,3.77,0,1.31.34,2.3.95,3.01.61.66,1.38,1.03,2.28,1.03l1.51-.25.37-.24c.25-.2.68-.6,1.38-1.21-.11,1.09-.23,1.89-.39,2.42-.21.66-.51,1.3-.88,1.88-.39.57-.9.99-1.5,1.35-.6.33-1.26.52-1.95.52l-.77-.13-.25.4.81.67c1.03,0,1.99-.17,2.88-.57.88-.37,1.69-.92,2.45-1.65.73-.73,1.32-1.61,1.75-2.65.44-1.03.66-2.29.66-3.78,0-1.29-.17-2.33-.49-3.16-.33-.85-.83-1.53-1.52-2.04-.66-.53-1.53-.78-2.59-.78ZM217.6,187.22c-.57,0-1.1.08-1.61.25l-1.32.81c-.38.33-.73.78-1.02,1.34-.3.55-.52,1.14-.61,1.82-.17.99-.26,2.09-.26,3.33,0,1.12.07,2.12.19,3.01.15.9.39,1.66.78,2.24.38.6.87,1.06,1.46,1.37.61.3,1.3.44,2.11.44.68,0,1.25-.09,1.72-.29l1.3-.8c.37-.37.73-.86,1.02-1.49.31-.61.54-1.37.64-2.24.11-.87.18-1.89.18-3.06,0-1.65-.15-2.93-.44-3.85-.3-.93-.77-1.64-1.42-2.16-.66-.49-1.55-.74-2.73-.74ZM194.55,188.36c.69,0,1.23.32,1.56.98.35.65.53,1.57.53,2.76,0,.61-.05,1.05-.19,1.39l-.67.76-.96.28-1.06-.38-.78-1c-.19-.48-.29-1.11-.29-1.88,0-1.06.17-1.79.53-2.23.35-.45.79-.68,1.33-.68h0ZM217.34,188.36l.88.28.64.85c.18.39.31.99.4,1.77.19,1.45.29,2.9.29,4.37,0,2.27-.21,3.66-.56,4.26-.38.57-.85.86-1.41.86l-1.22-.6c-.35-.42-.61-1.25-.77-2.52-.15-1.28-.23-2.74-.23-4.3s.1-2.7.33-3.47c.15-.53.39-.92.67-1.16l.99-.34ZM206.32,188.92l-.05,1.95-.02,1.36-.04,3.83h-3.79c.76-1.64,1.36-2.83,1.8-3.6.43-.77,1.12-1.95,2.11-3.53h0ZM155.44,190.33c7.71,6.18,8.25,16.35,8.25,16.35-3.11-1.37-7.12-14.02-7.12-14.02-.16-1.22-1.53-.83-1.53-.83.09-.88.4-1.51.4-1.51h0ZM245.1,190.33s.3.63.39,1.51c0,0-1.36-.39-1.52.83,0,0-4.01,12.65-7.14,14.02,0,0,.56-10.18,8.27-16.35h0ZM278.91,190.49l-1.02,1.74-.12.21c-.35.55-.71,1.09-1.08,1.62l.64.4c.36-.56.67-.92.86-1l.28-.07c.15.03.57.24,1.24.63.29.18,1.11.69,2.48,1.54l1.57.97c1.08.68,1.77,1.23,2.06,1.66.28.42.4.91.4,1.47-.04.59-.28,1.23-.73,1.94-.39.64-.78,1.08-1.2,1.36l-1.29.47-1.4-.38c-.22-.11-.82-.46-1.76-1.05l-.89-.55-1.77-1.1c-1.1-.69-1.79-1.16-2.06-1.43l-.16-.33c-.01-.21.16-.59.51-1.16l-.63-.38-.18.29-.62,1.04-.63,1.06-1.61,2.48.65.39.71-.95.32-.04.55.2c.6.33,1.25.72,1.98,1.15l1.94,1.23,1.48.94c.81.48,1.31.8,1.52.88l1.11.29,1.32-.17,1.37-.83c.66-.58,1.22-1.25,1.68-2,.39-.58.69-1.22.89-1.9.17-.6.24-1.15.18-1.72-.04-.52-.17-1.02-.42-1.42l-1-1.2-1.37-1.02-1.81-1.09c-.73-.46-1.45-.94-2.16-1.44-.9-.61-1.4-.97-1.49-1.09l-.14-.28.45-.97-.65-.42ZM134.82,192.88c12.74.13,16.77,8.67,16.77,8.67-8.92-5.99-16.47-8.02-16.47-8.02-1.44-.56-1.37,1.05-1.37,1.05-.81-.43-1.6-1.61-1.6-1.61.89-.07,1.78-.1,2.66-.09h0ZM265.71,192.88c.89,0,1.78.02,2.67.09,0,0-.8,1.18-1.6,1.61,0,0,.07-1.61-1.36-1.05,0,0-7.56,2.03-16.46,8.02,0,0,4.02-8.53,16.76-8.67h0ZM154.63,193.13c5.45,15.82,9.16,16.08,9.16,16.08v.62c-11.65-4.51-9.16-16.7-9.16-16.7h0ZM245.9,193.13s2.5,12.19-9.15,16.7v-.62s3.69-.26,9.15-16.08h0ZM134.33,195.14s5.36,1.21,16.04,7.86c0,0-9.4.42-16.04-7.86h0ZM266.21,195.14c-6.67,8.29-16.05,7.86-16.05,7.86,10.67-6.65,16.05-7.86,16.05-7.86h0ZM124.14,196.32l-.63.44c.37.59.6.98.63,1.15l-.04.19c-.09.15-.39.43-.95.86-.83.6-1.29.96-1.43,1.03l-3.32,2.37c-.39.25-1.03.69-1.89,1.27l-1.06.64-.95-.42-.38.29c1.1,1.49,1.7,2.32,1.81,2.41.32.45.88,1.25,1.7,2.43l.83,1.21c.41.59.75,1.03,1,1.31l.17.02c.61-.45,1.46-.97,2.52-1.56l-.42-.62c-.74.39-1.26.61-1.56.71h-.21l-.73-.73-1.11-1.43c-.33-.47-.65-.95-.96-1.44l.88-.69,3.12-2.22.9,1.14.84,1.37.04.45c-.07.17-.39.46-.98.86l.47.63,1.6-1.17,1.65-1.14-.45-.61-1.01.57h-.23l-.38-.42c-.51-.68-.82-1.09-.89-1.21l-.72-1.08,1.51-1.09c.87-.6,1.6-1.06,2.2-1.4l1.02,1.32c.35.48.66.98.93,1.51l.31.66-.1.2c-.1.12-.44.41-1.01.82l.41.59c.66-.41,1.03-.65,1.13-.68l1.15-.64.06-.11-.13-.26c-.24-.37-.48-.74-.73-1.1l-1.11-1.49c-.61-.8-1.15-1.56-1.63-2.22l-.67-.98-1.19-1.73ZM164.5,199.08s.8.09,1.84.5c0,0-.97.55-.23,1.76,0,0,6.36,5.69,11.57,11.94,0,0-6.5-.54-13.17-14.19h0ZM236.03,199.08c-6.66,13.65-13.17,14.19-13.17,14.19,5.22-6.25,11.56-11.94,11.56-11.94.73-1.2-.24-1.76-.24-1.76,1.05-.41,1.85-.5,1.85-.5h0ZM168.04,200.36c6.74,1.85,9.79,10.12,9.79,10.12-.31-.97-9.79-10.12-9.79-10.12ZM232.49,200.36s-9.46,9.15-9.78,10.12c0,0,3.04-8.27,9.78-10.12ZM271.38,202.22c-.6.85-1.22,1.69-1.87,2.5-.6.8-1.14,1.45-1.64,2.06l.62.49.76-.86.22-.11.21.04c.16.08.57.34,1.19.78.27.2.9.67,1.85,1.4l3,2.33c.48.37,1.01.79,1.54,1.28l.64.57.08.17-.1.28-.62.87.65.5c.49-.72,1-1.42,1.54-2.1.68-.88,1.33-1.71,1.95-2.47l-.62-.47-.72.81-.24.15-.24-.03-1.01-.66-1.32-.98-2.91-2.24c-.09-.05-.7-.56-1.87-1.49l-.7-.56-.4-.44-.04-.15.06-.28.6-.89-.63-.49ZM178.55,203.96c12.85,4.34,12.68,13.57,12.68,13.57-1.68-.55-9.96-11.06-9.96-11.06-2.16-.97-1.36,1.28-1.36,1.28,3.13,3.85,7.71,9.32,7.71,9.32-7.48-1.44-9.08-13.11-9.08-13.11h0ZM221.97,203.96s-1.61,11.67-9.08,13.11c0,0,4.57-5.47,7.73-9.32,0,0,.79-2.25-1.38-1.28,0,0-8.27,10.51-9.96,11.06,0,0-.17-9.23,12.69-13.57h0ZM165.64,204.94s2.64,3.92,3.37,4.74l-2.09.22s.15-1.26-1.21-1.6l-.07-3.36ZM234.88,204.94l-.06,3.36c-1.37.33-1.22,1.6-1.22,1.6l-2.07-.22c.7-.82,3.35-4.74,3.35-4.74h0ZM148.13,204.96c4.25-.13,7.79,1.35,7.79,1.35.16.56,3.22,3.12,3.22,3.12-4.84-1.45-14.05-2.96-14.05-2.96-1.71.47-.33,1.67-.33,1.67,7.3,1.38,14.76,3.47,14.76,3.47-11.15,3.15-19.2-4.02-19.2-4.02,2.44-1.9,5.25-2.55,7.8-2.63h0ZM252.41,204.96c2.55.08,5.34.73,7.77,2.63,0,0-8.02,7.17-19.18,4.02,0,0,7.47-2.09,14.78-3.47,0,0,1.36-1.2-.32-1.67,0,0-9.24,1.51-14.04,2.96,0,0,3.03-2.56,3.2-3.12,0,0,3.55-1.48,7.8-1.35h0ZM267.69,207.07l-.55.66c-.35.35-1.06,1.1-2.11,2.18l-2.56,2.64c-1.02,1.05-1.73,1.76-2.1,2.12l-.67.62.02.12.67.54c.12.08.62.57,1.53,1.42l.54-.54-.94-1.09-.15-.3.18-.28,1.14-1.3.91-.94c.16.1.75.69,1.81,1.71l3.89,3.8c.94.9,1.48,1.49,1.61,1.71l.07.45-.79,1.02.52.52c.75-.85,1.43-1.57,2.02-2.2.55-.56,1.27-1.23,2.12-2.04l-.53-.52-1.01.82-.45-.04c-.23-.15-.8-.66-1.74-1.57l-3.9-3.77c-1.04-1.03-1.63-1.58-1.76-1.74l.9-.96,1.29-1.22.25-.15.36.16,1.05.85.54-.54c-.92-.91-1.39-1.34-1.43-1.41l-.61-.73h-.12ZM134.22,209.24l-2.06.78-5.91,2.19c-1.12.43-1.86.7-2.25.82-.82.3-1.31.46-1.43.49l-.34.04-.26-.1-.66-.58-.56.51,1.47,1.52,1.36,1.58.55-.52c-.46-.54-.71-.91-.75-1.06l.13-.32c.14-.13.64-.38,1.45-.71l1.08-.44,3.13,3.43-.93,1.92-.42.64-.28.1c-.11-.05-.4-.33-.95-.82l-.55.49,2.2,2.33,1.65,1.86.55-.47-.22-.33-.32-.44-.03-.21.05-.29.37-.83.55-1.26,4.26-9.37-.87-.94ZM131.78,211.27l-2.15,4.56c-.36-.38-.82-.81-1.27-1.36l-1.28-1.44,4.7-1.76ZM167.36,211.8c1.45-.04,3.05.22,4.78.93,0,0-11.74,3.53-13,4.17,0,0-.73.25-.58,1.03l-1.12-.05s3.61-5.9,9.91-6.08h0ZM233.19,211.8c6.3.18,9.9,6.08,9.9,6.08l-1.12.05c.15-.78-.55-1.03-.55-1.03-1.3-.64-13.02-4.17-13.02-4.17,1.73-.71,3.33-.97,4.79-.93h0ZM137.98,213.72l-.46.73c-.09.12-.54.68-1.29,1.66l.59.47,1-1.01.29-.21.31.17,1.38,1.05,1.01.8c-.09.15-.61.81-1.55,1.96l-3.41,4.21c-.83,1.03-1.34,1.63-1.56,1.76l-.44.14c-.16-.05-.52-.27-1.1-.72l-.47.59c.9.66,1.69,1.24,2.35,1.8.63.52,1.38,1.15,2.27,1.91l.45-.55c-.55-.49-.87-.81-.91-.95v-.45c.11-.24.58-.87,1.4-1.88l3.44-4.21c.9-1.11,1.42-1.76,1.58-1.91l1,.81c.47.37.91.76,1.34,1.18l.19.24-.15.37-.76,1.14.61.47c.8-.98,1.21-1.51,1.26-1.54l.7-.68-.03-.12-.69-.48c-.4-.33-1.19-.98-2.39-1.89l-2.84-2.33c-1.16-.93-1.93-1.58-2.32-1.91l-.67-.6h-.12ZM174.55,214.1l.88.46s-5.53,3.79-13.65,3.37c0,0,10.61-3.52,12.77-3.83ZM225.99,214.1c2.17.31,12.77,3.83,12.77,3.83-8.11.42-13.67-3.37-13.67-3.37l.9-.46ZM177.36,215.46l2.09.4c-2.24,2.02-6.04,2.56-6.04,2.56,1.46-1.12,3.95-2.96,3.95-2.96h0ZM223.18,215.46s2.49,1.85,3.94,2.96c0,0-3.78-.54-6.03-2.56l2.1-.4ZM259.25,215.57c-.76.72-1.54,1.41-2.35,2.08-.67.56-1.35,1.11-2.03,1.66l.52.62.92-.7.25-.04.16.08c.17.11.5.45,1.03,1.02.24.27.73.86,1.51,1.75l2.46,2.9c.4.49.81,1.02,1.24,1.58l.5.72.04.16-.15.24-.78.73.51.64c.57-.53,1.21-1.11,1.95-1.75.8-.69,1.61-1.35,2.44-1.99l-.5-.6-.88.65-.28.09-.21-.09-.84-.83-1.1-1.28-2.36-2.78c-.08-.07-.58-.7-1.54-1.84l-.55-.69-.32-.52v-.16s.12-.24.12-.24l.78-.76-.53-.63ZM254.64,219.72l-1.61,1.11-1.95,1.24.43.64.86-.48.3-.12.17.02.17.17.12.17c.07.24.19.74.38,1.49.24,1.1.37,1.68.39,1.82l1.05,5.26-4.98-3.41-.15-.13-.79-.54c-.86-.6-1.35-.97-1.45-1.13l-.07-.25.17-.24.87-.67-.43-.65-2.69,1.81c-.26.19-1.01.65-2.25,1.41l.43.66,1.04-.49.88.37c.45.26,1.75,1.13,3.91,2.59l2.76,1.87c1.03.71,2.1,1.44,3.21,2.22l1.16-.75c-.26-1.07-.64-2.94-1.13-5.58l-.57-3.12-.3-1.64c-.26-1.3-.33-2.07-.27-2.25l.75-.75-.43-.66ZM200.27,220.27c7.21.18,13.44,2.42,13.44,2.42-6.14,1.33-12.53,1.32-13.39,1.28h-.1c-.87.04-7.27.05-13.4-1.28,0,0,6.23-2.24,13.44-2.42ZM147.27,221.29l-.44.66c.54.37.84.61.91.69l.13.2-.05.22c-.06.19-.28.59-.67,1.25-.2.32-.59.97-1.25,1.97l-2.06,3.18c-.35.51-.74,1.07-1.16,1.66l-.51.66-.16.08-.28-.08c-.09,0-.4-.2-.94-.5l-.43.66c.66.39,1.39.82,2.21,1.38.94.6,1.82,1.19,2.61,1.76l.44-.66-.88-.65-.16-.24v-.22l.58-1.07.88-1.42,1.98-3.05c.05-.1.5-.76,1.33-1.98l.52-.73.39-.46.16-.09.26.06.96.53.45-.66c-.91-.53-1.81-1.08-2.69-1.65-.82-.54-1.53-1.03-2.15-1.47h0ZM152.34,224.88l-.35.7.92.65c.08.13.13.43.13.96-.03.52-.12,2.08-.32,4.69l-.26,3.34c-.1,1.2-.2,2.5-.33,3.86l1.24.62c.78-.74,2.21-2,4.28-3.73l2.43-2.05,1.25-1.03c1.03-.88,1.64-1.34,1.85-1.37.12,0,.47.07.99.29l.37-.7-1.78-.84-2.02-1.1-.36.69.85.53.3.18.04.17-.04.22-.13.2c-.17.19-.55.55-1.11,1.07-.8.73-1.25,1.13-1.37,1.21l-4.06,3.55.52-6.04v-.16c.03-.06.05-.39.09-.98.1-1.05.18-1.65.28-1.81l.16-.17h.3s1.03.42,1.03.42l.36-.71-2.92-1.39c-.28-.15-1.05-.57-2.33-1.27ZM241.35,228.22c-.51.07-1.16.33-2.01.74-.44.22-.99.49-1.65.88-.39.22-.88.47-1.44.74-.67.31-1.17.59-1.56.76-.74.33-1.17.55-1.3.62l.31.65c.72-.29,1.13-.44,1.31-.44l.18.08c.11.13.36.5.7,1.18l.88,1.7,1.51,2.99,1.09,2.41.41,1,.04.27-.11.14c-.09.09-.44.31-1.03.64l.35.73c.7-.39,1.48-.83,2.3-1.23.94-.47,1.89-.92,2.85-1.35l-.34-.71c-.55.24-.87.4-.97.43h-.29l-.17-.04-.38-.56c-.07-.13-.44-.77-.98-1.88-.46-.88-.92-1.74-1.31-2.58-.25-.5-.75-1.55-1.46-3.08-.34-.69-.54-1.15-.64-1.33l.76-.46c.58-.31,1-.46,1.27-.48l1.21.25.99,1.08.31,1.51-.42,1.24c-.25.32-.71.64-1.37.93l.03.29.77.3c.61.29,1.34.75,2.24,1.31l3.15,2.01.44.35,1.27-.65c.36-.21.98-.47,1.83-.87l-.34-.69-.54.18-.38-.04c-.12-.06-.53-.25-1.21-.6-.04-.02-.36-.19-.95-.53l-2.19-1.29-.18-.09-.52-.33-.85-.53c.7-.73,1.1-1.47,1.26-2.18.12-.75.04-1.44-.28-2.1-.29-.56-.66-.92-1.15-1.19l-1.45-.2ZM164.96,231.28l-.29.75c.61.27.95.41,1.04.47l.18.18v.21c0,.19-.15.67-.39,1.39-.12.33-.38,1.05-.81,2.18l-1.35,3.53c-.21.58-.46,1.2-.78,1.86l-.36.79-.15.07h-.25c-.12,0-.45-.1-1.05-.29l-.29.71c.73.26,1.54.54,2.46.89,1.05.39,2.04.79,2.93,1.19l.28-.76c-.54-.23-.88-.38-.99-.44l-.21-.2-.04-.22c.01-.2.12-.6.35-1.17l.55-1.55,1.29-3.42c.05-.11.35-.83.88-2.22l.35-.83.29-.54.14-.09h.27c.11,0,.47.1,1.05.31l.28-.74c-.94-.31-1.91-.67-2.96-1.04-.92-.38-1.73-.69-2.43-1h0ZM232.38,232.19l-.31.04c-.63.18-1.08.32-1.29.38l-1.73.62c-.96.34-1.83.63-2.62.9l-1.14.36-2,.59.23.74c.69-.17,1.13-.27,1.3-.23l.17.08c.1.12.28.5.51,1.15.2.55.4,1.1.6,1.65l1.25,3.9c.15.44.36,1.16.64,2.16.15.55.26.94.31,1.2l-.69.77.16.47c1.76-.6,2.72-.96,2.85-.99.53-.17,1.48-.46,2.83-.91l1.41-.4c.52-.18,1.04-.38,1.55-.59l.06-.16c-.23-.73-.47-1.69-.71-2.84l-.72.21c.13.8.2,1.36.19,1.68l-.06.17-.91.52c-.51.21-1.07.4-1.7.62-.63.21-1.21.38-1.67.51l-.38-1.08-1.2-3.65c.36-.15.79-.31,1.36-.5.51-.16,1.04-.29,1.56-.4l.45.11c.14.1.33.51.53,1.19l.73-.25-.65-1.85-.59-1.92-.7.21c.16.54.23.88.23,1.15l-.04.2-.54.25c-.8.28-1.28.46-1.41.5l-1.24.38-.57-1.79c-.34-1-.57-1.82-.7-2.52.53-.18,1.03-.39,1.56-.56.51-.2,1.1-.33,1.69-.44l.73-.07.16.11c.1.15.26.56.49,1.23l.67-.24c-.18-.77-.31-1.15-.33-1.27l-.23-1.27-.09-.12ZM171.06,233.51l-.11.06-.15.86c-.05.15-.23.81-.55,2.02l.72.2.53-1.31.2-.26h.37c.47.13,1.05.24,1.66.44l1.24.35c-.04.18-.25.98-.68,2.39l-1.52,5.22c-.35,1.25-.59,2-.73,2.23l-.37.28c-.13.02-.56-.05-1.28-.23l-.21.71c1.1.26,2.06.51,2.88.74.79.21,1.72.53,2.83.92l.2-.73c-.68-.22-1.09-.38-1.2-.49l-.16-.42c.01-.3.19-1.03.55-2.28l1.53-5.22c.4-1.39.64-2.2.72-2.39l1.22.38c.68.21,1.24.38,1.71.55l.28.15v.42l-.26,1.3.7.24c.37-1.23.56-1.87.58-1.92l.38-.88-.07-.1-.82-.17c-.5-.13-1.49-.42-2.96-.82l-3.51-1.04c-1.42-.42-2.38-.7-2.88-.86l-.85-.32ZM220.02,235.77c-.63,0-1.25.05-1.87.17-.59.13-1.17.31-1.72.54-.55.26-1.03.58-1.42.98-.4.4-.68.9-.84,1.52-.19.59-.2,1.26-.09,1.92l.51,1.26.92.93c.35.25.8.39,1.35.44.36.02,1.09.05,2.21.08.79.02,1.34.07,1.66.2l.8.51.38.93-.07,1.24-.78,1.01c-.41.29-.91.48-1.46.6-.64.12-1.28.12-1.87-.08-.61-.17-1.05-.42-1.36-.75-.2-.61-.35-1.14-.4-1.56l-.72.13c.23,1.39.34,2.43.29,3.16.75.19,1.43.31,2.03.34.58.02,1.25-.03,1.99-.16.98-.2,1.81-.52,2.48-.92l1.15-1.08.75-1.36c.21-.65.24-1.34.09-2.11l-.41-1.12-.57-.8-.84-.46-1.26-.21c-.18,0-.61,0-1.23,0s-1.12.03-1.49,0l-1.11-.18-.65-.47-.37-.93c-.11-.54.03-1.06.39-1.55.36-.5.94-.82,1.76-.97.55-.11,1.07-.11,1.57,0l1.09.52c.13.25.24.74.41,1.44l.72-.15c-.11-.6-.15-1.11-.2-1.47l-.04-1.18-.12-.19c-.44-.14-1-.19-1.62-.19h0ZM186.31,236.8l-1.11,1.91-3.31,5.35c-.61,1.03-1.05,1.71-1.26,2.05-.47.72-.75,1.14-.83,1.27l-.26.24-.27.09-.87-.07-.13.76,2.08.27,2.06.42.11-.74c-.7-.12-1.11-.26-1.25-.35l-.09-.35c.05-.2.26-.71.7-1.44l.57-1.03,4.6.75.45,2.11.07.77-.18.24c-.09.02-.52,0-1.23-.08l-.13.75,3.15.47,2.47.47.13-.76-.4-.11-.52-.15-.16-.12-.14-.27-.21-.88-.36-1.31-2.44-10-1.28-.23ZM199.28,237.84c-.62,0-1.24.02-1.82.16-.57.12-1.09.38-1.57.66-.49.33-.88.78-1.14,1.31-.3.58-.44,1.19-.45,1.86l.22,1.36.7,1.08c.31.33.72.56,1.25.71.35.1,1.05.28,2.15.55.77.16,1.3.33,1.6.49l.65.66.18,1.01-.31,1.21-.97.83c-.47.21-.98.3-1.55.28-.64,0-1.27-.16-1.82-.46-.56-.27-.92-.61-1.16-1-.07-.62-.11-1.17-.09-1.63h-.75c-.02,1.42-.14,2.45-.33,3.14.69.35,1.32.62,1.9.74.57.15,1.25.24,1.98.24,1.01,0,1.89-.12,2.6-.42l1.34-.82,1.03-1.18c.34-.58.49-1.25.5-2.05l-.15-1.17-.45-.9-.69-.61-1.2-.47c-.17-.06-.59-.11-1.2-.22-.6-.13-1.12-.23-1.46-.31l-1.05-.41-.53-.6-.19-.98c0-.56.23-1.03.71-1.44.45-.4,1.08-.61,1.91-.59.57.02,1.1.11,1.54.32l.98.72c.05.31.07.79.07,1.48l.75.04c.03-.62.07-1.11.1-1.51l.2-1.14-.07-.22c-.42-.23-.95-.42-1.54-.55-.62-.1-1.25-.16-1.87-.16h0ZM185.66,239.89l1.14,4.95c-.56-.09-1.17-.16-1.85-.3-.63-.1-1.27-.21-1.9-.33l2.61-4.32Z"/>
</svg>