<?xml version="1.0" encoding="utf-8"?>
<!-- Generator: Adobe Illustrator 23.0.0, SVG Export Plug-In . SVG Version: 6.00 Build 0)  -->
<svg version="1.1" id="레이어_1" xmlns="http://www.w3.org/2000/svg" xmlns:xlink="http://www.w3.org/1999/xlink" x="0px"
	 y="0px" viewBox="0 0 500 500" style="enable-background:new 0 0 500 500;" xml:space="preserve">
<style type="text/css">
	.st0{fill:#EEF2F6;}
</style>
<path class="st0" d="M367.7,295.9l121-121c-9.9-31-25.3-59.1-45.7-83.7l-75.3,75.3V295.9z"/>
<path class="st0" d="M320.6,10.3c-22.5-6.3-45.7-9.9-70.4-9.9c-23.9,0-47.8,3.5-69.7,9.9v140L320.6,10.3z"/>
<path class="st0" d="M133.4,28.5C87,53.2,49.7,91.9,26.4,139l107.7,107.7V28.5C134.1,28.5,133.4,28.5,133.4,28.5z"/>
<polygon class="st0" points="320.6,222.1 320.6,75.7 247.4,148.9 "/>
<path class="st0" d="M409.9,58.1c-13.4-11.3-27.4-20.4-42.2-28.9v71.1L409.9,58.1z"/>
<path class="st0" d="M8.1,187.6c-4.9,19.7-7.7,40.8-7.7,62.6c0,95.7,54.2,178.7,133,220.9V312.8L8.1,187.6z"/>
<path class="st0" d="M214.3,181.9l-34.5,34.5v156.9l59.8-59.8l33.1,33.1l-92.2,92.9v50c21.8,6.3,45.7,9.9,69.7,9.9
	c24.6,0,48.6-3.5,70.4-9.9V288.2L214.3,181.9z"/>
<path class="st0" d="M367.7,362.1v108.4C446.5,428.2,500,345.2,500,250.2c0-6.3,0-12.7-0.7-19L367.7,362.1z"/>
</svg>
